<svg xmlns="http://www.w3.org/2000/svg" width="308.772" height="220.814" viewBox="0 0 308.772 220.814"><defs><style>.a{fill:#9e9e9d;}.b{fill:#7a7979;}.c{fill:#3c3c3c;}.d{fill:#ac1e1f;}.e{fill:#861617;}.f{fill:#6e1314;}.g{fill:#fdb993;}.h{fill:#cfd0d1;}.i{fill:#ca3735;}.j{fill:#fff;}.k{fill:#e79b71;}.l{fill:#c36041;}.m{fill:#a1c323;}.n{fill:#78992c;}.o{fill:#fd9600;}.p{fill:#ec411b;}.q{fill:#f79e89;}.r{fill:#fcc8b8;}.s{fill:#fecfb4;}.t{fill:#bb2c1b;}.u{fill:#3b1515;}.v{fill:#251010;}.w{fill:#e65d59;}.x{fill:#f17975;}.y{fill:#f59f9d;}.z{fill:#d1d2d4;}.aa{fill:#6ea7db;}.ab{fill:#1a1818;}.ac{fill:#f05f2f;}.ad{fill:#cd8156;}.ae{fill:#ffb500;}.af{fill:#005974;}.ag{fill:#ffddab;}.ah{fill:#fa0;}.ai{fill:#00a7c9;}.aj{fill:#724997;}.ak{fill:#b72d32;}.al{fill:#50b488;}.am{fill:#3b2b35;}.an{fill:#e6b03c;}.ao{fill:#d01f1e;}.ap{fill:#966037;}.aq{fill:#7d4926;}.ar{fill:#ad774c;}.as{fill:#ddac85;}.at{fill:#656666;}.au{fill:#982f47;}.av{fill:#0d4134;}.aw{fill:#d58a60;}.ax{fill:#197a60;}.ay{fill:#136b54;}.az{fill:#313133;}.ba{fill:#e9e9e9;}.bb{fill:#b5b7ba;}.bc{fill:#219172;}.bd{fill:#cd4967;}.be{fill:#ffb511;}.bf{fill:#f19d00;}.bg{fill:#db6349;}.bh{fill:#53271f;}.bi{fill:#72382e;}.bj{fill:#e97d08;}.bk{fill:#ffdb48;}.bl{fill:#4a4b4c;}.bm{fill:#929191;}.bn{fill:#747474;}.bo{fill:#838283;}.bp{fill:#a1a1a1;}.bq{fill:#7c3639;}.br{fill:#944f52;}.bs{fill:#e63c7a;}.bt{fill:#bf2363;}.bu{fill:#009c68;}.bv{fill:#007953;}.bw{fill:#008c5c;}.bx{fill:#6a483d;}.by{fill:#d56f58;}.bz{fill:#4f332a;}.ca{fill:#583325;}.cb{fill:#77554a;}.cc{fill:#00405e;}.cd{fill:#0c4f72;}.ce{fill:#136997;}.cf{fill:#00a1c8;}.cg{fill:#0076a4;}.ch{fill:#d4e9ec;}.ci{fill:#11608a;}.cj{fill:#ffd400;}.ck{fill:#494a4b;}.cl{fill:#9f2227;}.cm{fill:#d44e53;}.cn{fill:#a5a5a5;}</style></defs><g transform="translate(-222.834 -64.485)"><g transform="translate(222.834 132.271)"><g transform="translate(125.5 87.501)"><g transform="translate(10.078 21.448)"><rect class="a" width="2.274" height="13.349"/><rect class="a" width="2.274" height="13.349" transform="translate(17.008)"/></g><g transform="translate(0 35.215)"><path class="a" d="M1085.159,1399.283h-1.978l6.3-28.785,3.344-.064Z" transform="translate(-1083.182 -1370.434)"/><path class="b" d="M1120.526,1385.412h3.145l.548-2.062h-3.241Z" transform="translate(-1115.079 -1381.466)"/><g transform="translate(29.796)"><path class="a" d="M1295.109,1399.283h1.978l-6.3-28.785-3.344-.064Z" transform="translate(-1287.446 -1370.434)"/><path class="b" d="M1294.571,1385.412h-3.145l-.548-2.062h3.241Z" transform="translate(-1290.378 -1381.466)"/></g></g><rect class="c" width="38.338" height="4.148" transform="translate(0.55 33.368)"/><path class="c" d="M1106.562,1155.573c13.348,0,19.446-14.386,18.408-20.171s-11.289-6.378-18.408-6.378-17.37.594-18.409,6.378S1093.213,1155.573,1106.562,1155.573Z" transform="translate(-1087.331 -1129.025)"/></g><g transform="translate(244.841 121.16)"><g transform="translate(0 1.846)"><path class="a" d="M1903.28,1401.283H1901.3l6.3-28.785,3.344-.064Z" transform="translate(-1901.303 -1372.434)"/><path class="b" d="M1938.647,1387.412h3.145l.548-2.062H1939.1Z" transform="translate(-1933.2 -1383.466)"/><g transform="translate(29.796)"><path class="a" d="M2113.23,1401.283h1.978l-6.3-28.785-3.344-.064Z" transform="translate(-2105.567 -1372.434)"/><path class="b" d="M2112.692,1387.412h-3.145l-.548-2.062h3.241Z" transform="translate(-2108.499 -1383.466)"/></g></g><rect class="c" width="38.338" height="4.148" transform="translate(0.55)"/></g><g transform="translate(0.98 121.16)"><g transform="translate(0 1.846)"><path class="a" d="M231.53,1401.283h-1.978l6.3-28.785,3.344-.064Z" transform="translate(-229.552 -1372.434)"/><path class="b" d="M266.9,1387.412h3.145l.548-2.062h-3.242Z" transform="translate(-261.449 -1383.466)"/><g transform="translate(29.796)"><path class="a" d="M441.48,1401.283h1.978l-6.3-28.785-3.344-.064Z" transform="translate(-433.817 -1372.434)"/><path class="b" d="M440.942,1387.412H437.8l-.548-2.062h3.241Z" transform="translate(-436.749 -1383.466)"/></g></g><rect class="c" width="38.338" height="4.148" transform="translate(0.55)"/></g><g transform="translate(99.609)"><g transform="translate(30.306 112.146)"><g transform="translate(0.512)"><path class="d" d="M1120.453,1299.722c-.148,2.374-3.9,4.111-3.468,7.347,4.8-2.279,13.659.95,13.659.95l.911-1.468a3.59,3.59,0,0,1,1.191,1.413c2.882-1.638,10.432-1.195,13.614-.578.166-3.761-3.148-4.548-3.263-7.564C1138.253,1296.82,1125.643,1298,1120.453,1299.722Z" transform="translate(-1116.951 -1297.978)"/><path class="e" d="M1136.255,1304.092a3.548,3.548,0,0,1-1.286,2.637c5.834-1.615,11.042-2.011,11.965,3.856.824-4.186,4.812-7.152,11.6-4.021a3.014,3.014,0,0,1-.263-2.242,83.1,83.1,0,0,0-11.075-1.087C1143.441,1303.334,1136.255,1304.092,1136.255,1304.092Z" transform="translate(-1132.342 -1302.464)"/><path class="f" d="M1118.671,1347.387c-1.2.338-1.978,1.319-1.385,1.846s1.648,0,3.1-.2a22.208,22.208,0,0,1,7.054.4c2.176.593,3.861.883,3.24.173S1124.693,1345.688,1118.671,1347.387Z" transform="translate(-1117.064 -1339.76)"/></g><path class="g" d="M1148.56,1346.957a3.849,3.849,0,0,0-1.273,2.038l.178-.008h.009l.194-.007h0c.222-.007.454-.01.694-.011h.022c.237,0,.481,0,.729.009h.022l.368.013h.033c.248.01.5.024.75.042l.041,0q.189.013.378.03a11.737,11.737,0,0,1,1.043-1.413l.218-.169A14.966,14.966,0,0,0,1148.56,1346.957Z" transform="translate(-1142.35 -1339.812)"/><path class="f" d="M1237.31,1347.387c1.2.338,1.978,1.319,1.384,1.846s-1.648,0-3.1-.2a22.208,22.208,0,0,0-7.054.4c-2.175.593-3.86.883-3.24.173S1231.287,1345.688,1237.31,1347.387Z" transform="translate(-1208.875 -1339.76)"/><path class="g" d="M1260.386,1346.957a3.852,3.852,0,0,1,1.273,2.038l-.178-.008h-.008l-.194-.007h0c-.222-.007-.454-.01-.694-.011h-.022c-.236,0-.481,0-.729.009h-.022l-.368.013h-.033c-.248.01-.5.024-.75.042l-.04,0q-.189.013-.378.03a11.647,11.647,0,0,0-1.043-1.413l-.218-.169A14.969,14.969,0,0,1,1260.386,1346.957Z" transform="translate(-1236.042 -1339.812)"/><g transform="translate(0 7.137)"><path class="h" d="M1124.644,1535.494a2.557,2.557,0,0,1,.039,1.879,8.992,8.992,0,0,1-6.381,4c-2.14.135-4.28-.763-4.714-1.888a1.948,1.948,0,0,1,.2-1.838C1116.838,1535.9,1124.644,1535.494,1124.644,1535.494Z" transform="translate(-1113.444 -1507.984)"/><path class="g" d="M1150.651,1348.629c0,7.749,2.662,23.337,2.559,26.426-1.309,1.846-3.14-.373-3.14-.373s-3.109-23.9-2.848-26.107C1147.387,1345.974,1150.651,1346.749,1150.651,1348.629Z" transform="translate(-1142.281 -1346.907)"/><path class="d" d="M1125.991,1509.58s-1.149,1.888-1.821,1.525c.474-.714.357-2.287-.677-2.47s-1.031,1.618-1.031,1.618a4.415,4.415,0,0,0-3.923-.4,4.778,4.778,0,0,0-3.131,4.846c.52.806,2.776,1.838,5.591,1.436s4.631-2.7,4.992-3.012a1.666,1.666,0,0,0,.354-1.748C1126.071,1510.748,1126.662,1509.58,1125.991,1509.58Z" transform="translate(-1115.07 -1485.033)"/><path class="i" d="M1125.849,1520.235c-.99-.317-3.368,1.8-2.3,3.008s4.36.532,4.36.532-2.775-.218-2.457-1.65C1125.571,1521.582,1126.694,1520.5,1125.849,1520.235Z" transform="translate(-1121.845 -1494.924)"/><path class="j" d="M1149.229,1518.448a.2.2,0,0,1-.168-.1c-.85-1.276-1.748-.577-1.786-.544a.191.191,0,0,1-.29-.055.263.263,0,0,1,.047-.339c.012-.008,1.274-.992,2.367.651a.261.261,0,0,1-.04.337A.194.194,0,0,1,1149.229,1518.448Z" transform="translate(-1142.057 -1492.286)"/><path class="j" d="M1135.252,1521.59a.207.207,0,0,1-.171-.094c-.855-1.279-1.749-.576-1.786-.541a.2.2,0,0,1-.293-.063.265.265,0,0,1,.046-.333c.013-.008,1.277-.992,2.368.65a.256.256,0,0,1-.038.334A.191.191,0,0,1,1135.252,1521.59Z" transform="translate(-1130.115 -1494.971)"/><g transform="translate(18.669)"><path class="h" d="M1241.625,1535.494a2.555,2.555,0,0,0-.039,1.879,8.991,8.991,0,0,0,6.381,4c2.14.135,4.28-.763,4.714-1.888a1.949,1.949,0,0,0-.2-1.838C1249.431,1535.9,1241.625,1535.494,1241.625,1535.494Z" transform="translate(-1241.426 -1507.984)"/><path class="g" d="M1247.662,1348.629c0,7.749-3.138,23.337-3.035,26.426,1.309,1.846,3.14-.373,3.14-.373s3.585-23.9,3.324-26.107C1250.926,1345.974,1247.662,1346.749,1247.662,1348.629Z" transform="translate(-1244.158 -1346.907)"/><path class="d" d="M1241.946,1509.58s1.149,1.888,1.821,1.525c-.474-.714-.356-2.287.677-2.47s1.031,1.618,1.031,1.618a4.415,4.415,0,0,1,3.923-.4,4.778,4.778,0,0,1,3.131,4.846c-.52.806-2.777,1.838-5.591,1.436s-4.631-2.7-4.992-3.012a1.666,1.666,0,0,1-.354-1.748C1241.866,1510.748,1241.276,1509.58,1241.946,1509.58Z" transform="translate(-1241.47 -1485.033)"/><path class="i" d="M1280.043,1520.235c.99-.317,3.369,1.8,2.3,3.008s-4.36.532-4.36.532,2.775-.218,2.457-1.65C1280.322,1521.582,1279.2,1520.5,1280.043,1520.235Z" transform="translate(-1272.65 -1494.924)"/><path class="j" d="M1269.142,1518.448a.2.2,0,0,0,.168-.1c.85-1.276,1.749-.577,1.786-.544a.191.191,0,0,0,.29-.055.263.263,0,0,0-.047-.339c-.012-.008-1.274-.992-2.367.651a.261.261,0,0,0,.041.337A.193.193,0,0,0,1269.142,1518.448Z" transform="translate(-1264.916 -1492.286)"/><path class="j" d="M1283.123,1521.59a.206.206,0,0,0,.171-.094c.855-1.279,1.749-.576,1.787-.541a.2.2,0,0,0,.293-.063.265.265,0,0,0-.046-.333c-.013-.008-1.277-.992-2.368.65a.256.256,0,0,0,.038.334A.191.191,0,0,0,1283.123,1521.59Z" transform="translate(-1276.862 -1494.971)"/></g></g></g><g transform="translate(55.137 85.866)"><path class="g" d="M1283.67,1120.45a202.428,202.428,0,0,1,17.355,11.7c-.029,1.364,1.2,2.3,3.063,3.2,1.122,1.053,2.069,1.574,2.381,1.06.326-.533-1.016-1.6-1.308-1.909.063.022,1.844,1.148,2.263,1.367.949.511,1.56-.338.815-.922-.622-.494-2.124-1.525-2.2-1.582.09.023,2.1.918,2.47,1.085,1.086.5,1.8-.631.562-1.231-.838-.408-2.336-1.071-2.445-1.164.07-.022,1.292.2,2.027.273,1.207.123,1.479-.887.142-1.267-1.052-.291-3.54-1.124-3.54-1.124s1.464-1.05.876-1.849-3.095,1.109-3.095,1.109-10.163-7.407-17.822-11.372A9.733,9.733,0,0,0,1283.67,1120.45Z" transform="translate(-1283.67 -1117.822)"/><path class="k" d="M1301,1128.574c-.283.439-.925,1.437-1.466,2.287a10.8,10.8,0,0,0,2.76,1.648c-.385-.449-.8-1.11-.519-1.654.378-.727,1.767-.532,2.323-.423A15.376,15.376,0,0,1,1301,1128.574Z" transform="translate(-1297.217 -1127.005)"/><path class="l" d="M1419.382,1202.63a.177.177,0,0,0,0-.025.115.115,0,0,1,.135-.082c1.023.226,1.534-.7,1.676-1.283a.11.11,0,0,1,.136-.082.116.116,0,0,1,.085.135,1.693,1.693,0,0,1-1.946,1.449A.107.107,0,0,1,1419.382,1202.63Z" transform="translate(-1399.585 -1188.999)"/></g><g transform="translate(38.417 77.995)"><path class="g" d="M1169.052,1070.038s2.583-1.238,4.2-1.915a15.885,15.885,0,0,0-.59-3.588l3.089-.672s.559,2.76.647,3.88c2.338.327,5.447.554,5.447.554s2.368,6.935-5.592,7.52C1174.158,1075.97,1169.06,1073.314,1169.052,1070.038Z" transform="translate(-1169.052 -1063.863)"/><path class="k" d="M1197.684,1069.459l-2.616.7a11.815,11.815,0,0,1,.65,2.706c.673-.686,2-1.225,2.778-.363A24.044,24.044,0,0,0,1197.684,1069.459Z" transform="translate(-1191.273 -1068.643)"/></g><g transform="translate(26.061 82)"><path class="m" d="M1127.79,1092.7a20.326,20.326,0,0,0-9.371,5.678c.827,1.722,2.522,4.679,3.387,5.2a17.05,17.05,0,0,0,1.65-1.721c-.138,6.689-2.424,16.135-5.613,20.721,6.182,3.754,24.7,3.266,29.478,0-.977-2.342-3.566-14.133-4.909-22.448-.031-.168,1.9,1.152,2.61,1.524a13.5,13.5,0,0,0,2.29-5.448,23.426,23.426,0,0,0-12.39-4.49C1136.2,1096.074,1128.995,1096.382,1127.79,1092.7Z" transform="translate(-1112.957 -1091.661)"/><g transform="translate(0 7.591)"><path class="g" d="M1092.021,1146.243c-.585.752-4.542,5.292-3.92,5.426,2.521.545,4.866.969,7.6.132,2.116-.649,6.032,2.249,5.739,2.75s-1.943-.292-2.11-.459c.343.99-1.181.49-1.474.323.283.788-3.067.447-3.735.363s-6.249,0-7.754-.04-2.579-1.576-1.7-3.648c1.3-3.051,4.848-6.77,5.642-7.731C1090.767,1144.32,1092.021,1146.243,1092.021,1146.243Z" transform="translate(-1084.348 -1143.359)"/><path class="k" d="M1118.39,1145.652a15.626,15.626,0,0,0,1.393,2.363c-.283.343-.626.706-.989,1.11.218-.55.443-1.253,0-1.676a1.453,1.453,0,0,0-1.8-.182A12.15,12.15,0,0,0,1118.39,1145.652Z" transform="translate(-1112.234 -1145.318)"/></g><path class="j" d="M1120.118,1132.254a36.919,36.919,0,0,0,3.3,5.513,4.266,4.266,0,0,1-.776.893,24.735,24.735,0,0,1-3.65-5.4C1119.613,1132.681,1120.118,1132.254,1120.118,1132.254Z" transform="translate(-1113.938 -1126.283)"/><path class="j" d="M1187.012,1091.319c.631,1.4.369,3.035-1.86,3.353a3.475,3.475,0,0,1-3.976-2.563,9.3,9.3,0,0,0-1.428.417s.7,4.434,5.94,3.506c3.955-.7,3.419-3.707,2.988-4.61A10.95,10.95,0,0,0,1187.012,1091.319Z" transform="translate(-1165.832 -1091.318)"/><path class="n" d="M1130.825,1234.057a47.078,47.078,0,0,1-3.783,9.514c4.618,2.114,17.209,3.648,26.706.167-1.756-8.066-2.169-9.622-2.169-9.622s1.11,9.8-10.9,10.09S1130.825,1234.057,1130.825,1234.057Z" transform="translate(-1120.814 -1213.235)"/></g><path class="o" d="M923.141,622.4s-4.323,7.687-14.3,3.4c-2.549,2.868,5.536,8.275-3.155,10.308,5.277,2.807,19.718-4.027,21.6-11.422C926.275,619.7,923.141,622.4,923.141,622.4Z" transform="translate(-905.688 -608.176)"/><path class="p" d="M958.293,548.153c-3.575,1.863-10.977,5.589-15.516.468-3.28,1.029-10.42-4.523-4.081-8.574-4.9-8.33,5.021-13.388,7.854-7.538,2.312-5.628,12.059-4.2,8.19,4.853,5.694-7.138,11.53,1.771,6.839,6.677C957.195,548.624,958.293,548.153,958.293,548.153Z" transform="translate(-931.714 -529.179)"/><g transform="translate(12.891 24.933)"><path class="g" d="M1048.64,717.778c2.964,7.512,4.776,30.53-16.241,37.04-20.9,6.473-33.3-7.564-37.321-22.116-4.843-17.56,8.5-29.386,20.863-31.81C1035.243,697.095,1044.674,707.722,1048.64,717.778Z" transform="translate(-994.059 -700.104)"/><g transform="translate(46.863 30.248)"><path class="q" d="M1315.33,912.666c.144,1.738,2.76,2.9,5.341,2.085a4.7,4.7,0,0,0,3.522-5.067c-.267-1.882-2.741-3.261-5.2-1.174C1316.694,910.457,1315.177,910.871,1315.33,912.666Z" transform="translate(-1315.319 -907.465)"/><path class="r" d="M1361.2,918.078a.481.481,0,0,0,.578.344c.3-.031.514-.243.483-.472a.486.486,0,0,0-.579-.345C1361.388,917.64,1361.169,917.853,1361.2,918.078Z" transform="translate(-1354.502 -916.122)"/></g><path class="s" d="M1241.932,918.6c.034.254.361.42.747.374s.666-.285.638-.531-.363-.418-.747-.368S1241.9,918.353,1241.932,918.6Z" transform="translate(-1205.773 -886.268)"/><g transform="translate(13.543 36.9)"><path class="q" d="M1086.949,956.969c.4,2.593,3.083,4.131,6.5,3.934,3.292-.19,6.353-3.011,5.5-5.377-.8-2.249-2.507-1.242-6.443-2.221C1088.7,952.363,1086.55,954.374,1086.949,956.969Z" transform="translate(-1086.902 -953.069)"/><path class="r" d="M1102.063,965.791a.509.509,0,0,0,.62.342.449.449,0,1,0-.131-.858A.525.525,0,0,0,1102.063,965.791Z" transform="translate(-1099.849 -963.488)"/></g><path class="t" d="M1299,815.044c-3.021-.966-3.767,2.367-1.744,2.444,2.167.076,3.954.93,4.235.729C1302.105,817.778,1300.7,815.589,1299,815.044Z" transform="translate(-1252.061 -798.128)"/><path class="t" d="M1110.605,854.7c2.624-1.769,4.279,1.209,2.36,1.853-2.059.686-3.534,2-3.859,1.889C1108.394,858.187,1109.121,855.693,1110.605,854.7Z" transform="translate(-1092.089 -831.673)"/><path class="l" d="M1233.917,917.477a.14.14,0,0,0,.1,0,2.223,2.223,0,0,0,1.4-2.393,2.142,2.142,0,0,0-1.627-1.84c-.493-.066-1.435.059-2.188,1.715a.144.144,0,0,0,.073.195.14.14,0,0,0,.2-.071c.5-1.1,1.164-1.647,1.873-1.545a1.828,1.828,0,0,1,1.387,1.588,1.9,1.9,0,0,1-1.236,2.079.155.155,0,0,0-.068.2A.139.139,0,0,0,1233.917,917.477Z" transform="translate(-1196.938 -882.139)"/><g transform="translate(30.063 37.435)"><path class="u" d="M1212.995,956.736s1.89,10.64-5.577,12.2-7.266-9.115-7.266-9.115S1205.9,960.813,1212.995,956.736Z" transform="translate(-1200.152 -956.736)"/><path class="v" d="M1206.123,975.131c0,2.66-.562,6.477-3.439,8.361-2.63-2.557-2.532-7.955-2.532-7.955A16.357,16.357,0,0,0,1206.123,975.131Z" transform="translate(-1200.152 -972.448)"/><path class="w" d="M1216.706,1004.931a6.126,6.126,0,0,1-4.374,2.967c-3.691.764-5.52-1.575-6.256-3.991a2.181,2.181,0,0,1,2.647-.582C1209.892,1001.175,1214.682,1002.5,1216.706,1004.931Z" transform="translate(-1205.213 -995.605)"/><path class="x" d="M1211.876,1005.595a2.014,2.014,0,0,1,1.613.02,1.83,1.83,0,0,1,1.725-1.042c2.793-.234,6.34,2.547,2.827,4.08C1214.495,1010.215,1209.8,1006.567,1211.876,1005.595Z" transform="translate(-1209.729 -997.583)"/><path class="y" d="M1239.206,1007.461c-.615-.582-2.1-.9-2.493-.5-.471.482.827,1.16,1.674,1.236S1239.6,1007.823,1239.206,1007.461Z" transform="translate(-1231.294 -999.481)"/><path class="j" d="M1223.264,964.207a1.9,1.9,0,0,1-1.238,2.647,14.883,14.883,0,0,1-4.773,1.207c-1.7.1-2.562-.593-2.541-1.764A23.141,23.141,0,0,0,1223.264,964.207Z" transform="translate(-1212.588 -963.117)"/></g><g transform="translate(41.402 21.608)"><path class="k" d="M1277.974,852.131a4.446,4.446,0,1,0,5.233-3.825A4.6,4.6,0,0,0,1277.974,852.131Z" transform="translate(-1277.886 -848.236)"/><path class="k" d="M1286.255,902.4c-1.411.4-1.627,1.11-.489,1.6a8.269,8.269,0,0,0,4.62.161c1.41-.395,1.635-1.114.489-1.6A8.151,8.151,0,0,0,1286.255,902.4Z" transform="translate(-1283.993 -894.282)"/><path class="j" d="M1281.294,852.526a4.4,4.4,0,1,0,5.166-3.78A4.554,4.554,0,0,0,1281.294,852.526Z" transform="translate(-1280.724 -848.61)"/><path class="z" d="M1285.134,869.6a4.155,4.155,0,0,1,.528-1.37,4.077,4.077,0,0,0-.229.782,4,4,0,0,0,3.041,4.749,3.784,3.784,0,0,0,3.339-1.055,3.749,3.749,0,0,1-3.709,1.543A3.915,3.915,0,0,1,1285.134,869.6Z" transform="translate(-1284.015 -865.314)"/><path class="aa" d="M1293.718,878.521a2.385,2.385,0,1,0,1.832-2.951A2.444,2.444,0,0,0,1293.718,878.521Z" transform="translate(-1291.362 -871.545)"/><path class="ab" d="M1299.563,889.924a1.426,1.426,0,1,0,1.1-1.765A1.462,1.462,0,0,0,1299.563,889.924Z" transform="translate(-1296.373 -882.313)"/><path class="j" d="M1309.374,887.734a.6.6,0,0,0,.708.509.619.619,0,0,0,.47-.74.64.64,0,0,0-.716-.524A.631.631,0,0,0,1309.374,887.734Z" transform="translate(-1304.767 -881.321)"/><path class="j" d="M1301.048,904.06a.384.384,0,0,0,.437.31.389.389,0,0,0-.153-.761A.387.387,0,0,0,1301.048,904.06Z" transform="translate(-1297.664 -895.524)"/></g><g transform="translate(19.022 26.408)"><path class="k" d="M1124.552,885.031a4.449,4.449,0,1,0,5.234-3.819A4.608,4.608,0,0,0,1124.552,885.031Z" transform="translate(-1124.465 -881.14)"/><path class="k" d="M1132.831,935.31c-1.407.4-1.624,1.11-.488,1.6a8.225,8.225,0,0,0,4.626.165c1.417-.4,1.637-1.112.49-1.6A8.152,8.152,0,0,0,1132.831,935.31Z" transform="translate(-1130.572 -927.191)"/><path class="j" d="M1127.865,885.439a4.4,4.4,0,1,0,5.178-3.78A4.549,4.549,0,0,0,1127.865,885.439Z" transform="translate(-1127.298 -881.522)"/><path class="z" d="M1131.725,902.512a4.182,4.182,0,0,1,.53-1.358,3.935,3.935,0,0,0-.228.78,4,4,0,0,0,3.036,4.755,3.8,3.8,0,0,0,3.342-1.064,3.758,3.758,0,0,1-3.708,1.545A3.926,3.926,0,0,1,1131.725,902.512Z" transform="translate(-1130.605 -898.235)"/><path class="aa" d="M1140.307,911.446a2.383,2.383,0,1,0,1.837-2.949A2.458,2.458,0,0,0,1140.307,911.446Z" transform="translate(-1137.951 -904.468)"/><path class="ab" d="M1146.166,922.811a1.425,1.425,0,1,0,1.1-1.766A1.481,1.481,0,0,0,1146.166,922.811Z" transform="translate(-1142.973 -915.202)"/><path class="j" d="M1155.969,920.684a.6.6,0,0,0,.707.5.623.623,0,0,0,.47-.738.6.6,0,1,0-1.177.236Z" transform="translate(-1151.361 -914.264)"/><path class="j" d="M1147.658,936.979a.384.384,0,0,0,.429.317.4.4,0,0,0,.289-.459.367.367,0,1,0-.718.142Z" transform="translate(-1144.268 -928.443)"/></g></g><g transform="translate(2.538 11.809)"><path class="p" d="M964.454,624.075a48.74,48.74,0,0,1,2.862,14.153,19.211,19.211,0,0,1-4.5,1.059l-4.25-11.533s2.723,8.808,2.271,11.7c-3.772,1.533-15.077,2.476-19.172,2.952.633,4.839.06,11.673-2.057,19.317-1.566.539-5.705,1.289-5.705,1.289s-13.062-13.577-10.479-30.287c1.693-10.961,19.044-16.454,19.044-16.454s-6.641.148-5.7-2.376,7.684,1.392,7.684,1.392-2.147-3.754.05-4.885c3.153-1.628,2,4.722,2,4.722a55.19,55.19,0,0,1,24.078-1.875c11.409,1.886,19.8,6.2,18.123,30.107a60.754,60.754,0,0,1-4.179-9.023,78.837,78.837,0,0,1-11.79,2.859A26.021,26.021,0,0,0,964.454,624.075Z" transform="translate(-923.086 -610.133)"/><path class="t" d="M935.376,784.186c-.112,9.648,1.031,12.4,9.779,27.424,2.487.471,5.709-6.724,4.745-20.084C946.055,804.065,939.707,801.336,935.376,784.186Z" transform="translate(-933.577 -758.797)"/><path class="ac" d="M971.914,633.1c-8.878,5.941-28.377,7.135-36.534,5.9-5.007,2.7-10.971,7.145-11.929,13.344a29.356,29.356,0,0,0-.331,4.855,85.387,85.387,0,0,1,63.636-12.447C984.1,637.12,978.687,634.406,971.914,633.1Z" transform="translate(-923.113 -629.748)"/></g><g transform="translate(10.619 58.738)"><path class="g" d="M986.636,934.056a5.006,5.006,0,0,0-5.669-1.946c-3.864,1.223-2.889,6.951.66,9.342s7.877,1.04,7.879-2.145Z" transform="translate(-978.484 -931.849)"/><path class="ad" d="M995.43,943.753c2.144-1.58,6.357,2.4,4.337,6.408-.261-4.062-2.061-4.669-2.987-2.25-.512-1.127-.252-2.1,1.232-2.638A3.389,3.389,0,0,0,995.43,943.753Z" transform="translate(-992.958 -941.713)"/></g><path class="ae" d="M1001.972,592.846c-4.7-1.278-14.251-3.2-16.1,2.282s-4.339,6.682-4.339,6.682l1.981,2.714a25.366,25.366,0,0,1,10.292-4.842c5.868-1.132,9.082-1.789,9.082-1.789A5.481,5.481,0,0,0,1001.972,592.846Z" transform="translate(-970.465 -582.367)"/></g><g transform="translate(0 97.619)"><g transform="translate(0 5.767)"><path class="af" d="M246.236,1244.964v-5.759a.644.644,0,0,0,0-1.284H225.018c-2.922,0-2.9,8.326,0,8.326h21.218a.644.644,0,0,0,0-1.284Z" transform="translate(-222.834 -1237.922)"/><path class="ag" d="M300.277,1250.014H278.461v-6.661h21.816s-.535.491-.535,3.248C299.742,1249.39,300.277,1250.014,300.277,1250.014Z" transform="translate(-270.347 -1242.561)"/><path class="af" d="M293.4,1244.964H272.766a.5.5,0,0,0-.06.007c-1.406,0-1.406-5.772,0-5.772a.555.555,0,0,0,.06.006H293.4a.644.644,0,0,0,0-1.284H272.178c-.632,0-2.5.559-2.5,1.249L269.9,1245c0,.69,1.642,1.249,2.274,1.249H293.4a.644.644,0,0,0,0-1.284Z" transform="translate(-262.842 -1237.922)"/></g><g transform="translate(5.416)"><path class="ah" d="M281.957,1203.313v-4.027a.455.455,0,1,0,0-.9H261.936c-2.643,0-2.626,5.821,0,5.821h20.021a.455.455,0,1,0,0-.9Z" transform="translate(-259.96 -1198.389)"/><path class="ag" d="M375.835,1206.845H365.623v-4.657h10.212s-.484.343-.484,2.271C375.351,1206.409,375.835,1206.845,375.835,1206.845Z" transform="translate(-350.21 -1201.634)"/><path class="ah" d="M369.608,1203.313h-9.139c-.019,0-.036,0-.055,0-1.272,0-1.272-4.036,0-4.036.018,0,.036,0,.055,0h9.139a.455.455,0,1,0,0-.9h-9.671c-.572,0-2.264.391-2.264.874l.207,4.075c0,.483,1.485.873,2.057.873h9.671a.455.455,0,1,0,0-.9Z" transform="translate(-343.419 -1198.389)"/></g></g><g transform="translate(74.052 102.175)"><g transform="translate(12.942 4.003)"><path class="a" d="M821.185,1302.451h-1.978l11.075-45.387h4.351Z" transform="translate(-819.208 -1257.064)"/><path class="b" d="M896.29,1259.127l.548-2.062h-4.351l-.451,2.063Z" transform="translate(-881.412 -1257.064)"/><g transform="translate(101.025)"><path class="a" d="M1525.214,1302.451h1.977l-11.075-45.387h-4.351Z" transform="translate(-1511.766 -1257.064)"/><path class="b" d="M1512.313,1259.127l-.548-2.062h4.351l.451,2.063Z" transform="translate(-1511.766 -1257.064)"/></g></g><g transform="translate(23.343 1.22)"><rect class="a" width="30.539" height="1.582" transform="translate(0 13.102) rotate(-25.405)"/><rect class="a" width="1.582" height="30.539" transform="matrix(0.429, -0.903, 0.903, 0.429, 67.383, 1.43)"/></g><rect class="ai" width="142.333" height="5.169"/></g><g transform="translate(4.312 111.583)"><path class="aj" d="M279.992,1302.323v-6.708a.75.75,0,0,0,0-1.5H254.968c-3.447,0-3.424,9.7,0,9.7h25.024a.75.75,0,0,0,0-1.5Z" transform="translate(-252.391 -1294.119)"/><path class="ag" d="M337.52,1308.208H318v-7.76H337.52s-.63.572-.63,3.783C336.89,1307.481,337.52,1308.208,337.52,1308.208Z" transform="translate(-308.428 -1299.526)"/><path class="aj" d="M329.4,1302.323H311.28a.684.684,0,0,0-.071.008c-1.658,0-1.658-6.724,0-6.724a.6.6,0,0,0,.071.008H329.4a.75.75,0,0,0,0-1.5H310.586c-.745,0-2.952.651-2.952,1.455l.27,6.789c0,.8,1.937,1.455,2.682,1.455H329.4a.75.75,0,0,0,0-1.5Z" transform="translate(-299.576 -1294.119)"/></g><g transform="translate(177.634 46.832)"><rect class="ak" width="3.446" height="3.368" transform="translate(21.538 12.134)"/><g transform="translate(15.377 38.127)"><rect class="ak" width="1.468" height="16.047" transform="translate(2.884)"/><rect class="al" width="4.078" height="10.856" transform="translate(1.579 3.238)"/><path class="ak" d="M1558.786,1158.682a2.473,2.473,0,1,1-2.473-2.473A2.474,2.474,0,0,1,1558.786,1158.682Z" transform="translate(-1552.695 -1149.702)"/><path class="am" d="M1565.767,1167.113a1.034,1.034,0,1,1-1.034-1.033A1.034,1.034,0,0,1,1565.767,1167.113Z" transform="translate(-1561.116 -1158.133)"/><path class="am" d="M1549.557,1215.371a3.328,3.328,0,0,1,3.568,3.272h-7.133A3.326,3.326,0,0,1,1549.557,1215.371Z" transform="translate(-1545.992 -1200.234)"/><g transform="translate(8.635)"><rect class="ak" width="1.468" height="16.047" transform="translate(2.884)"/><rect class="al" width="4.077" height="10.856" transform="translate(1.579 3.238)"/><path class="ak" d="M1617.977,1158.682a2.474,2.474,0,1,1-2.474-2.473A2.474,2.474,0,0,1,1617.977,1158.682Z" transform="translate(-1611.886 -1149.702)"/><path class="am" d="M1624.959,1167.113a1.035,1.035,0,1,1-1.035-1.033A1.035,1.035,0,0,1,1624.959,1167.113Z" transform="translate(-1620.307 -1158.133)"/><path class="am" d="M1608.751,1215.371a3.326,3.326,0,0,1,3.565,3.272h-7.131A3.327,3.327,0,0,1,1608.751,1215.371Z" transform="translate(-1605.185 -1200.234)"/></g></g><g transform="translate(0 8.904)"><path class="am" d="M1455.779,935.375a.54.54,0,0,0-.117.754l1.082,4.752a.525.525,0,0,0,.15.139l4.9,2.881a.54.54,0,0,0,.569-.917l-4.807-2.824-1.02-4.668A.54.54,0,0,0,1455.779,935.375Z" transform="translate(-1453.372 -931.769)"/><path class="ak" d="M1495.555,981.875a1.889,1.889,0,1,0-1.889,1.889A1.889,1.889,0,0,0,1495.555,981.875Z" transform="translate(-1484.308 -969.962)"/><path class="am" d="M1505.931,975.679a2.55,2.55,0,0,1-2.549-2.55v-2.91a2.55,2.55,0,0,1,2.549-2.549h.337a2.55,2.55,0,0,1,2.549,2.549v2.91a2.55,2.55,0,0,1-2.549,2.55Z" transform="translate(-1494.22 -959.443)"/><path class="an" d="M1455.461,956.374a2.474,2.474,0,1,0-.534,3.457A2.473,2.473,0,0,0,1455.461,956.374Z" transform="translate(-1449.472 -948.93)"/><path class="ak" d="M1463.06,966.077a.969.969,0,1,0-.209,1.354A.97.97,0,0,0,1463.06,966.077Z" transform="translate(-1458.286 -957.743)"/><path class="ak" d="M1441.526,911.269a.452.452,0,0,0-.38.164,2.551,2.551,0,1,0,4.163.286.45.45,0,0,0-.769.468,1.631,1.631,0,0,1,.235.966,1.652,1.652,0,1,1-2.932-1.151.449.449,0,0,0-.064-.633A.455.455,0,0,0,1441.526,911.269Z" transform="translate(-1440.575 -911.268)"/><g transform="translate(31.926 8.227)"><path class="am" d="M1702.424,1005.219a.539.539,0,0,0,.539-.54v-5.036a.54.54,0,0,0-.039-.2l-2.249-5.217a.54.54,0,0,0-1,.4l2.209,5.119v4.932A.541.541,0,0,0,1702.424,1005.219Z" transform="translate(-1693.771 -990.062)"/><path class="ak" d="M1682.987,983.447a1.889,1.889,0,1,0,1.889-1.888A1.889,1.889,0,0,0,1682.987,983.447Z" transform="translate(-1679.552 -979.533)"/><path class="am" d="M1662.32,975.679a2.55,2.55,0,0,0,2.551-2.55v-2.91a2.55,2.55,0,0,0-2.551-2.549h-.335a2.549,2.549,0,0,0-2.549,2.549v2.91a2.549,2.549,0,0,0,2.549,2.55Z" transform="translate(-1659.436 -967.67)"/><path class="an" d="M1701.22,1017.491a2.474,2.474,0,1,0,2.474-2.473A2.474,2.474,0,0,0,1701.22,1017.491Z" transform="translate(-1695.125 -1008.111)"/><path class="ak" d="M1711.538,1026.3a.968.968,0,1,0,.969-.968A.969.969,0,0,0,1711.538,1026.3Z" transform="translate(-1703.938 -1016.924)"/><path class="ak" d="M1704.957,1069.787a.447.447,0,0,0,.366-.189,2.527,2.527,0,0,0,.468-1.472,2.551,2.551,0,1,0-4.639,1.466.45.45,0,0,0,.736-.517,1.652,1.652,0,1,1,2.7,0,.45.45,0,0,0,.107.627A.442.442,0,0,0,1704.957,1069.787Z" transform="translate(-1694.671 -1051.293)"/></g></g><path class="am" d="M1554.838,1090.487a2.549,2.549,0,0,1-2.549,2.549H1538.77a2.55,2.55,0,0,1-2.55-2.549v-.336a2.55,2.55,0,0,1,2.55-2.549h13.519a2.549,2.549,0,0,1,2.549,2.549Z" transform="translate(-1522.268 -1052.976)"/><path class="am" d="M1563.138,951.557a2.082,2.082,0,0,1-2.081,2.082h-11.038a2.082,2.082,0,0,1-2.081-2.082v-.273a2.082,2.082,0,0,1,2.081-2.082h11.038a2.083,2.083,0,0,1,2.081,2.082Z" transform="translate(-1532.277 -934.764)"/><g transform="translate(12.159)"><g transform="translate(0 7.191)"><path class="ak" d="M1657.722,904.276h.929a2.376,2.376,0,0,0,0-4.751h-.929Z" transform="translate(-1638.205 -899.525)"/><path class="ak" d="M1527.232,904.276h-.929a2.376,2.376,0,0,1,0-4.751h.929Z" transform="translate(-1523.928 -899.525)"/></g><path class="al" d="M1553.339,863.606v-3.76a9.618,9.618,0,0,0-19.237,0v3.76Z" transform="translate(-1532.618 -850.228)"/><path class="am" d="M1560.668,912.344a1.133,1.133,0,0,1-1.133,1.132H1551.1a1.132,1.132,0,0,1-1.133-1.132h0a1.133,1.133,0,0,1,1.133-1.133h8.437a1.133,1.133,0,0,1,1.133,1.133Z" transform="translate(-1546.167 -902.315)"/><g transform="translate(4.607 3.868)"><path class="am" d="M1558.211,878.09a1.35,1.35,0,0,1-1.351,1.35h0a1.35,1.35,0,0,1-1.349-1.35h0a1.349,1.349,0,0,1,1.349-1.348h0a1.349,1.349,0,0,1,1.351,1.348Z" transform="translate(-1555.512 -876.742)"/><path class="am" d="M1601.99,878.09a1.349,1.349,0,0,1-1.349,1.35h0a1.35,1.35,0,0,1-1.349-1.35h0a1.349,1.349,0,0,1,1.349-1.348h0a1.348,1.348,0,0,1,1.349,1.348Z" transform="translate(-1592.906 -876.742)"/></g></g><g transform="translate(11.714 16.116)"><path class="al" d="M1543.973,981.82a.509.509,0,0,1-.51.509h-22.072a.51.51,0,0,1-.51-.509v-20.6a.51.51,0,0,1,.51-.511h22.072a.51.51,0,0,1,.51.511Z" transform="translate(-1520.881 -960.707)"/><path class="ak" d="M1571.651,999.737a5.846,5.846,0,1,1-5.846-5.846A5.846,5.846,0,0,1,1571.651,999.737Z" transform="translate(-1554.259 -989.05)"/><g transform="translate(8.084 8.258)"><path class="an" d="M1583.223,1017.857a.54.54,0,0,1-.54.54h-5.846a.54.54,0,0,1-.54-.54h0a.54.54,0,0,1,.54-.539h5.846a.539.539,0,0,1,.54.539Z" transform="translate(-1576.298 -1017.318)"/><path class="an" d="M1583.223,1032.656a.54.54,0,0,1-.54.54h-5.846a.54.54,0,0,1-.54-.54h0a.539.539,0,0,1,.54-.54h5.846a.539.539,0,0,1,.54.54Z" transform="translate(-1576.298 -1029.958)"/><path class="an" d="M1583.223,1047.453a.539.539,0,0,1-.54.54h-5.846a.539.539,0,0,1-.54-.54h0a.539.539,0,0,1,.54-.539h5.846a.539.539,0,0,1,.54.539Z" transform="translate(-1576.298 -1042.597)"/></g><g transform="translate(0.943 0.883)"><path class="am" d="M1528.6,967.387a.628.628,0,0,1-.629.629h0a.628.628,0,0,1-.629-.629h0a.629.629,0,0,1,.629-.629h0a.629.629,0,0,1,.629.629Z" transform="translate(-1527.346 -966.758)"/><path class="am" d="M1664.863,967.387a.629.629,0,0,1-.629.629h0a.628.628,0,0,1-.629-.629h0a.629.629,0,0,1,.629-.629h0a.629.629,0,0,1,.629.629Z" transform="translate(-1643.728 -966.758)"/><path class="am" d="M1528.6,1095.636a.629.629,0,0,1-.629.629h0a.629.629,0,0,1-.629-.629h0a.629.629,0,0,1,.629-.63h0a.629.629,0,0,1,.629.63Z" transform="translate(-1527.346 -1076.298)"/><path class="am" d="M1664.863,1095.636a.629.629,0,0,1-.629.629h0a.629.629,0,0,1-.629-.629h0a.629.629,0,0,1,.629-.63h0a.629.629,0,0,1,.629.63Z" transform="translate(-1643.728 -1076.298)"/></g></g><path class="ao" d="M1486.04,1176.734a38.383,38.383,0,0,1-13.284-2.106c-4.415-1.713-6.748-4.328-6.748-7.561v-37.426c0-2.515-1.144-3.686-3.6-3.686a.511.511,0,0,1,0-1.021c3.024,0,4.622,1.628,4.622,4.707v37.426c0,3.508,3.315,5.53,6.1,6.609,9.371,3.637,24.963,2.035,28.461-1.793a1.96,1.96,0,0,0,.628-1.7c-.361-2.021-4.424-4.116-7.688-5.8-3.405-1.757-5.865-3.027-5.743-4.512.084-1.023,1.354-1.548,2.3-1.853,7.852-2.53,7.819-6.182,7.754-13.46-.006-.679-.012-1.387-.012-2.125v-13.2c0-2.3-1.134-3.277-3.792-3.277a1.822,1.822,0,0,1-1.345-.6c-1.89-1.961-1.809-8.572-1.586-14.615.033-.893.059-1.6.059-2.065a.511.511,0,1,1,1.021,0c0,.484-.026,1.2-.06,2.1-.145,3.913-.447,12.056,1.3,13.869a.818.818,0,0,0,.609.29,5.674,5.674,0,0,1,3.192.748,3.934,3.934,0,0,1,1.622,3.549v13.2c0,.735.006,1.439.012,2.116.065,7.284.1,11.681-8.462,14.441-1.484.478-1.592.888-1.6.965-.067.807,2.974,2.376,5.193,3.521,3.822,1.973,7.775,4.012,8.225,6.529a2.947,2.947,0,0,1-.879,2.565C1499.893,1175.25,1493.083,1176.734,1486.04,1176.734Z" transform="translate(-1458.787 -1070.537)"/></g><g transform="translate(109.479 87.982)"><path class="ap" d="M990.223,1138.453l-1.625,13.393h-9.386l-1.753-13.185Z" transform="translate(-976.86 -1137.559)"/><path class="aq" d="M992.177,1134.8l-.214,1.769s-11.508-1.024-10.044,6.329c1.026,5.153,8.726,4.527,8.726,4.527l-.093.767h-8.7l-1.753-13.185Z" transform="translate(-979.113 -1134.438)"/><path class="ar" d="M1033.294,1159.367c.511-.486,2-1.435,2.266-.154s.1,6.665-1.744,6.756S1030.95,1161.6,1033.294,1159.367Z" transform="translate(-1023.389 -1154.742)"/><path class="as" d="M1049.718,1165.658c.108-.1.421-.3.478-.032s.021,1.409-.368,1.427S1049.222,1166.129,1049.718,1165.658Z" transform="translate(-1038.332 -1160.652)"/><path class="ar" d="M973.35,1133.143c0,.167.2.3.446.3h13.317c.246,0,.446-.136.446-.3v-.516c0-.167-.2-.3-.446-.3H973.8c-.246,0-.446.136-.446.3Z" transform="translate(-973.35 -1132.324)"/></g><g transform="translate(213.543 0.915)"><g transform="translate(0 53.974)"><g transform="translate(16.891 7.364)"><path class="g" d="M1812.151,961.853c.017-.022.027-.039.027-.039a28.393,28.393,0,0,1-.863-2.91c-.584-1.879-1.469-2.043-2.08-1.8-.5-1.221-1.757-1.189-2.023-.526-1.133-1.449-2.594-.047-3.082.414.425.316,1.818.643,2.138.993.421.456-.445,3.011-1.635,2.609-.718-.322-1.533-.781-1.892-.886-.651,1.079.216,3.623,3.418,3.437.82-.048,3.409-.239,3.922.208,0,0,6.772,11.783,19.419,10.835a6.888,6.888,0,0,0,.413-3.16S1819.864,972.29,1812.151,961.853Z" transform="translate(-1802.539 -955.943)"/><path class="k" d="M1937.56,1055.721a5.436,5.436,0,0,0,2.713.412,15.405,15.405,0,0,1,.042,2.759,11.473,11.473,0,0,1-3.751-.7C1939,1058.077,1939.458,1056.778,1937.56,1055.721Z" transform="translate(-1917.014 -1041.166)"/></g><path class="at" d="M1705.494,915.268a.594.594,0,0,1,.238.806h0a.594.594,0,0,1-.806.238l-17.869-9.732a.594.594,0,0,1-.238-.806h0a.594.594,0,0,1,.806-.238Z" transform="translate(-1686.746 -905.464)"/><path class="ak" d="M1808.271,963.906a1.614,1.614,0,0,1,.645,2.189l-.53.973a1.613,1.613,0,0,1-2.189.645l-11.9-6.482a1.614,1.614,0,0,1-.646-2.189l.53-.973a1.614,1.614,0,0,1,2.189-.646Z" transform="translate(-1777.886 -949.676)"/><g transform="translate(16.607 7.941)"><path class="g" d="M1811.227,959.9c-1.275.846-1.474,1.932-.589,2.1s2.751-1.008,2.751-1.008Z" transform="translate(-1808.709 -959.9)"/><path class="g" d="M1800.594,984.532c.024-.477.886-.771,1.455-.052a8.965,8.965,0,0,0,1.731,1.481S1800.456,987.281,1800.594,984.532Z" transform="translate(-1800.59 -980.526)"/></g><g transform="translate(38.201 21.381)"><path class="au" d="M1961.021,1053.144a25.636,25.636,0,0,1-7.419-.113c-.983,1.264-.873,4.7-.71,5.819,2.569,1.387,6.859.5,6.859.5Z" transform="translate(-1952.179 -1052.887)"/><path class="j" d="M1951.156,1052.191s-1.11,4.534-.982,6.209a2.8,2.8,0,0,1-1.548-.457s.137-4.263,1.111-5.9A12,12,0,0,1,1951.156,1052.191Z" transform="translate(-1948.626 -1052.041)"/></g></g><g transform="translate(33.775 98.115)"><path class="av" d="M1929.809,1264.83c.557,1.416-1.281.583-2.78-.027-1.745-.713-9.51-4.269-8.683-5.772.941-1.708,3.04-.728,6.033.682S1929.809,1264.83,1929.809,1264.83Z" transform="translate(-1918.285 -1250.821)"/><g transform="translate(0.425 8.274)"><path class="k" d="M1924.179,1264.781s-5.833,10.8-1.174,13.606c3.345,2.019,16.244-7.134,16.244-7.134l-2.177-2.632s-8.386,5.229-11.267,5.81c-1.828-.418,2.429-8.005,2.429-8.005Z" transform="translate(-1921.2 -1264.781)"/><g transform="translate(1.853 0.615)"><path class="aw" d="M1938.287,1270.311s-.753,1.729-1.162,2.594c-.411-1.855-1.705-2.674-3.224-1.012a15.986,15.986,0,0,1,1.256-2.9Z" transform="translate(-1933.901 -1268.996)"/></g></g><g transform="translate(0.061)"><path class="ax" d="M1936.963,1208.608s2.546,4.981-6.712,14.116c-1.21-1.993-11.118-6.894-11.545-6.452a30.3,30.3,0,0,1,5.755-8.209Z" transform="translate(-1918.706 -1208.063)"/></g><g transform="translate(15.045 10.403)"><path class="ay" d="M2021.445,1284.16a3.781,3.781,0,0,1,3.964-1.91c2.168,1.119,5.01,5.384,4.183,8.8-.768,3.184-3.337,2.991-4.546,1.665-.977-1.073-.556-3.879-2.983-4.922-.926-.106-.976-1.512.755-1.526C2023.376,1284.854,2021.445,1284.16,2021.445,1284.16Z" transform="translate(-2021.427 -1281.763)"/><g transform="translate(0 5.369)"><path class="az" d="M2021.422,1316.188a1.116,1.116,0,0,1,.078.307A.672.672,0,0,1,2021.422,1316.188Z" transform="translate(-2021.422 -1316.188)"/></g><path class="ba" d="M2046.091,1279.75a2.087,2.087,0,0,1,1.758-.26c2.072,1.359,3.836,5.018,3.967,7.589s-1.119,3.716-2.125,3.419C2050.388,1287.918,2050.755,1283.575,2046.091,1279.75Z" transform="translate(-2042.492 -1279.382)"/><path class="ba" d="M2029.765,1309.453c.677-.8,1.885.813,1.7,1.277a19.147,19.147,0,0,0-.98,2.38c-.328.1-1.431-.984-1.425-1.661A3.755,3.755,0,0,1,2029.765,1309.453Z" transform="translate(-2027.942 -1304.879)"/><path class="bb" d="M2033.514,1311.04a1.446,1.446,0,0,0-1.06-1.267,2.163,2.163,0,0,1,.214-.319c.677-.8,1.885.813,1.7,1.277a19.147,19.147,0,0,0-.98,2.38c-.109.034-.3-.059-.5-.22A5.333,5.333,0,0,0,2033.514,1311.04Z" transform="translate(-2030.845 -1304.879)"/></g></g><g transform="translate(45.066 72.225)"><path class="g" d="M2001.516,1033.31l-1.514-.351-.056-2.346-2.7-.037.148,2.457-1.234.354s-1.913,1.778,1.937,2.12C2000.726,1035.744,2002.176,1034.489,2001.516,1033.31Z" transform="translate(-1995.688 -1030.576)"/></g><path class="k" d="M2007.93,1036.112l-.122-1.843,2.305-.048s-.007,1.281.022,1.816A1.488,1.488,0,0,0,2007.93,1036.112Z" transform="translate(-1960.974 -961.465)"/><g transform="translate(39.709 96.469)"><path class="av" d="M1970.479,1265.43c.552,1.415-1.287.581-2.78-.032-1.744-.711-9.506-4.278-8.674-5.779.942-1.709,3.039-.73,6.032.687S1970.479,1265.43,1970.479,1265.43Z" transform="translate(-1958.963 -1249.677)"/><g transform="translate(0.41 9.337)"><path class="g" d="M1964.762,1265.389s-5.846,10.791-1.191,13.6c3.344,2.021,16.257-7.114,16.257-7.114l-2.174-2.635s-8.394,5.22-11.276,5.8c-1.827-.423,2.442-8,2.442-8Z" transform="translate(-1961.772 -1264.718)"/><path class="k" d="M1980.2,1262.726a26.331,26.331,0,0,1-1.3,2.593c-.169-1.892-1.834-2.918-3.554-1.463a20.328,20.328,0,0,0,1.218-3.069Z" transform="translate(-1973.361 -1260.787)"/></g><g transform="translate(0.062 0)"><path class="bc" d="M1977.653,1199.078s2.542,4.983-6.726,14.106c-.138-2.392-10.174-7.666-11.538-6.463,2.147-4.713,5.161-9.942,5.161-9.942Z" transform="translate(-1959.389 -1196.779)"/></g><g transform="translate(15.033 12.158)"><path class="bc" d="M2062.053,1284.906a3.78,3.78,0,0,1,3.97-1.9c2.168,1.121,5,5.386,4.173,8.8-.772,3.177-3.343,2.986-4.549,1.653-.976-1.073-.551-3.875-2.98-4.923-.92-.109-.968-1.517.758-1.524C2063.985,1285.6,2062.053,1284.906,2062.053,1284.906Z" transform="translate(-2062.033 -1282.514)"/><g transform="translate(0 5.363)"><path class="az" d="M2062.022,1316.891a1.176,1.176,0,0,1,.079.308A.614.614,0,0,1,2062.022,1316.891Z" transform="translate(-2062.022 -1316.891)"/></g><path class="ba" d="M2086.75,1280.5a2.083,2.083,0,0,1,1.755-.262c2.07,1.364,3.832,5.022,3.959,7.591s-1.127,3.719-2.128,3.418C2091.032,1288.67,2091.406,1284.323,2086.75,1280.5Z" transform="translate(-2083.143 -1280.129)"/><path class="ba" d="M2070.382,1310.2c.674-.8,1.882.808,1.693,1.275a18.9,18.9,0,0,0-.986,2.376c-.325.1-1.429-.986-1.417-1.663A3.643,3.643,0,0,1,2070.382,1310.2Z" transform="translate(-2068.557 -1305.625)"/></g></g><g transform="translate(37.781 74.752)"><path class="bd" d="M1966.194,1077.86s1.482-11.391.562-17.835c-.748-5.23-2.612-9.241-8.044-11.14-2.13,2.889-6.611,2.074-5.032-.009-4.394,3.3-7.679,15.685-7.933,24.912,3.218,1.15,3.676,2.4,8.791,3.61A30.024,30.024,0,0,0,1966.194,1077.86Z" transform="translate(-1945.747 -1048.733)"/><path class="j" d="M1994.062,1047.907c-.482.234-1.164,1.426,1.005,1.665a3.591,3.591,0,0,0,3.162-1.633,4.061,4.061,0,0,1,2,.831,6.5,6.5,0,0,1-6.028,1.989c-2.114-.38-2.267-1.719-1.582-2.34A2.051,2.051,0,0,1,1994.062,1047.907Z" transform="translate(-1985.467 -1047.899)"/><path class="au" d="M1989.947,1109.615s1.543,10.495-.386,19.368a23.577,23.577,0,0,1-15.047-2.392C1989.021,1129.6,1990.232,1120.418,1989.947,1109.615Z" transform="translate(-1970.318 -1100.612)"/></g><g transform="translate(20.136 85.201)"><path class="g" d="M1853.776,1119.535c-1.739,3.9-7.4,9.836-19.727,5.182-1-2.066-4.325-3.21-6.323-2.628-2.137.619-3.534,3.412-2.693,3.932.919.563,1.246-1.428,2.677-2.181-1.161,1.511-.208,2.4.294,2.347-.113,1.1.867,1.05,1.376.576a1.309,1.309,0,0,0,.278-1.094,5.245,5.245,0,0,0,3.741,1.628c4.741,2.014,17.079,5.361,23.163-5.975A3.633,3.633,0,0,0,1853.776,1119.535Z" transform="translate(-1824.785 -1119.535)"/><path class="k" d="M2008.284,1140.023a10.325,10.325,0,0,1-1.52,1.664c.848-1.384-.768-2.24-2.385-1.4.587-.617,1.312-1.354,1.312-1.354Z" transform="translate(-1978.182 -1136.108)"/><path class="l" d="M1846.262,1154.336l.011,0a.1.1,0,0,0,.1-.089,2.2,2.2,0,0,1,1.178-1.688.1.1,0,1,0-.08-.173,2.361,2.361,0,0,0-1.289,1.843A.092.092,0,0,0,1846.262,1154.336Z" transform="translate(-1843.063 -1147.591)"/><path class="l" d="M1844.269,1145.715a.089.089,0,0,0,.085-.024,2.56,2.56,0,0,1,1-.464.091.091,0,0,0,.073-.112.1.1,0,0,0-.114-.078,2.8,2.8,0,0,0-1.091.518.1.1,0,0,0,0,.135A.1.1,0,0,0,1844.269,1145.715Z" transform="translate(-1841.359 -1141.317)"/></g><g transform="translate(46.506 78.654)"><path class="au" d="M2012.589,1086.9c2.243-3.911,3.36-10.746.268-12.053-3.35-1.417-6.435,5.267-7.241,9.028A16.114,16.114,0,0,1,2012.589,1086.9Z" transform="translate(-2005.607 -1074.653)"/><path class="j" d="M2006.053,1125.6a3.36,3.36,0,0,0-.487,1.789c1.5.322,5.472,1.714,6.973,3.025a6.381,6.381,0,0,0,.865-1.621A30.412,30.412,0,0,0,2006.053,1125.6Z" transform="translate(-2005.558 -1118.173)"/></g><g transform="translate(25.705)"><g transform="translate(40.658 43.117)"><path class="be" d="M2162.692,831.037c3.257,5.853,12.353,18.188,5.163,22.3-4.417,2.541-19.353-4.883-26.168-12.208C2148.665,830.567,2162.692,831.037,2162.692,831.037Z" transform="translate(-2141.687 -831.034)"/><path class="bf" d="M2184.313,854.2c4.448,7.482-11.733,15.769,4.155,16.144-3.773,4.619-17-2.209-23.816-9.534C2171.626,850.247,2184.313,854.2,2184.313,854.2Z" transform="translate(-2161.302 -850.201)"/></g><g transform="translate(0 3.546)"><g transform="translate(1.177 17.589)"><path class="g" d="M1874.2,694.233c-3.617,6.686-7.939,28.011,10.874,36.492,18.7,8.433,31.857-3.278,37.251-16.443,6.524-15.863-4.529-28.434-15.76-32.117C1889.032,676.422,1879.042,685.278,1874.2,694.233Z" transform="translate(-1871.032 -680.34)"/><path class="q" d="M1891.8,872.063c-.371,1.768-3.2,2.635-5.739,1.469a4.872,4.872,0,0,1-2.981-5.663c.512-1.906,3.228-3.017,5.486-.552C1890.681,869.61,1892.188,870.223,1891.8,872.063Z" transform="translate(-1881.193 -838.83)"/><path class="s" d="M1893.234,876.107a.485.485,0,0,1-.635.282c-.3-.069-.495-.313-.428-.543a.565.565,0,0,1,1.063.261Z" transform="translate(-1889.077 -847.067)"/><path class="s" d="M2002.788,883.458c-.06.235-.383.358-.741.273-.341-.084-.586-.34-.527-.566s.382-.352.737-.258C2002.6,882.986,2002.844,883.24,2002.788,883.458Z" transform="translate(-1982.478 -853.331)"/><path class="q" d="M2081.1,929.481c-.667,2.376-3.339,3.517-6.5,2.942-3.037-.562-5.564-3.548-4.5-5.659,1.008-2.007,2.474-.88,6.256-1.34C2080.009,924.978,2081.779,927.1,2081.1,929.481Z" transform="translate(-2040.853 -889.622)"/><path class="s" d="M2128.4,938.375a.472.472,0,0,1-.615.246.483.483,0,0,1-.4-.534.494.494,0,0,1,.618-.254A.482.482,0,0,1,2128.4,938.375Z" transform="translate(-2089.988 -900.253)"/><path class="bg" d="M2095.7,947.555a.475.475,0,0,1-.616.247.484.484,0,0,1-.395-.534.491.491,0,0,1,.618-.254A.482.482,0,0,1,2095.7,947.555Z" transform="translate(-2062.052 -908.094)"/><path class="bg" d="M2090.846,933.668a.475.475,0,0,1-.614.247.482.482,0,0,1-.4-.534.493.493,0,0,1,.619-.256A.484.484,0,0,1,2090.846,933.668Z" transform="translate(-2057.909 -896.232)"/><path class="bg" d="M2078.406,943.028a.477.477,0,0,1-.617.246.484.484,0,0,1-.395-.535.492.492,0,0,1,.617-.255A.487.487,0,0,1,2078.406,943.028Z" transform="translate(-2047.282 -904.226)"/><path class="bg" d="M1921.96,902.621a.474.474,0,0,1-.615.247.485.485,0,0,1-.4-.535.492.492,0,0,1,.619-.254A.482.482,0,0,1,1921.96,902.621Z" transform="translate(-1913.659 -869.713)"/><path class="bg" d="M1917.112,888.74a.476.476,0,0,1-.616.249.483.483,0,0,1-.395-.535.492.492,0,0,1,.618-.255A.484.484,0,0,1,1917.112,888.74Z" transform="translate(-1909.517 -857.859)"/><path class="bg" d="M1904.675,898.094a.476.476,0,0,1-.616.249.486.486,0,0,1-.395-.536.492.492,0,0,1,.618-.255A.485.485,0,0,1,1904.675,898.094Z" transform="translate(-1898.895 -865.848)"/><path class="bh" d="M1937.308,779.356c2.924-.561,3.243,2.644,1.351,2.478-2.03-.177-3.789.417-4.027.207C1934.119,781.556,1935.668,779.664,1937.308,779.356Z" transform="translate(-1925.27 -764.856)"/><path class="bh" d="M2111.849,823.518c-2.24-1.967-4.12.638-2.412,1.454,1.835.879,3.057,2.287,3.381,2.211C2113.5,827.036,2113.1,824.62,2111.849,823.518Z" transform="translate(-2074.095 -802.018)"/><g transform="translate(10.197 33.775)"><path class="u" d="M1945.069,912.627c-2.008-2.067-4.93.35-3.927,4.617s3.683,6.973,9.092,7.7c5.568.752,9.162-3.473,9.035-6.533s-4.349-1.5-7.686-1.991C1949.6,916.13,1947.668,915.3,1945.069,912.627Z" transform="translate(-1940.938 -911.876)"/><path class="j" d="M1976.423,920.748a15.39,15.39,0,0,1-2.76-.081c-1.983-.292-3.914-1.12-6.514-3.8l-.028-.026c-.848.943-.108,3.424,2.641,4.824C1972.906,923.267,1976.344,922.7,1976.423,920.748Z" transform="translate(-1963.019 -916.12)"/><path class="x" d="M1961.938,974.567a11.342,11.342,0,0,0,6.232,2.558,8.382,8.382,0,0,0,6.388-1.623C1972.433,972.132,1963.2,972.438,1961.938,974.567Z" transform="translate(-1958.875 -964.055)"/><path class="y" d="M1995.124,976.418c-1.022-.02-2.069.977-.478,1.3C1996.868,978.178,1998.223,976.479,1995.124,976.418Z" transform="translate(-1986.113 -967.003)"/></g><path class="l" d="M1995.569,882.515a.125.125,0,0,0,.144-.066.143.143,0,0,0-.04-.2,1.78,1.78,0,0,1-.907-2.08,1.733,1.733,0,0,1,1.467-1.333c.672-.007,1.224.586,1.569,1.666a.137.137,0,0,0,.177.083.13.13,0,0,0,.083-.174c-.512-1.63-1.369-1.861-1.831-1.843a2,2,0,0,0-1.735,1.529,2.122,2.122,0,0,0,1.027,2.4A.088.088,0,0,1,1995.569,882.515Z" transform="translate(-1976.42 -849.656)"/><g transform="translate(6.606 18.89)"><path class="k" d="M1927.739,814.024a4.429,4.429,0,1,1-4.94-4.16A4.584,4.584,0,0,1,1927.739,814.024Z" transform="translate(-1918.545 -809.836)"/><path class="k" d="M1931.036,863.846c1.376.491,1.542,1.214.377,1.628a8.243,8.243,0,0,1-4.6-.157c-1.374-.488-1.548-1.219-.376-1.625A8.111,8.111,0,0,1,1931.036,863.846Z" transform="translate(-1924.293 -855.61)"/><path class="j" d="M1925.03,814.219a4.379,4.379,0,1,1-4.875-4.111A4.536,4.536,0,0,1,1925.03,814.219Z" transform="translate(-1916.317 -810.044)"/><path class="z" d="M1932.022,832.542a4.11,4.11,0,0,0-.431-1.4,4.073,4.073,0,0,1,.175.792,3.984,3.984,0,0,1-3.348,4.513,3.769,3.769,0,0,1-3.245-1.278,3.736,3.736,0,0,0,3.581,1.788A3.9,3.9,0,0,0,1932.022,832.542Z" transform="translate(-1923.88 -828.037)"/><path class="aa" d="M1922.826,830.69a2.375,2.375,0,1,1-1.619-3.059A2.434,2.434,0,0,1,1922.826,830.69Z" transform="translate(-1917.89 -824.967)"/><path class="ab" d="M1921.586,837.44a1.421,1.421,0,1,1-.973-1.829A1.456,1.456,0,0,1,1921.586,837.44Z" transform="translate(-1918.434 -831.81)"/><path class="j" d="M1921.955,834.931a.6.6,0,0,1-.739.457.616.616,0,0,1-.417-.767.6.6,0,1,1,1.156.31Z" transform="translate(-1920.126 -830.588)"/><path class="j" d="M1931.962,851.816a.383.383,0,0,1-.455.279.375.375,0,0,1-.252-.468.37.37,0,0,1,.456-.278A.383.383,0,0,1,1931.962,851.816Z" transform="translate(-1929.064 -845.28)"/></g><g transform="translate(28.516 25.193)"><path class="k" d="M2077.939,857.229a4.433,4.433,0,1,1-4.941-4.154A4.59,4.59,0,0,1,2077.939,857.229Z" transform="translate(-2068.739 -853.048)"/><path class="k" d="M2081.232,907.06c1.372.488,1.537,1.215.376,1.622a8.2,8.2,0,0,1-4.609-.153c-1.381-.49-1.552-1.217-.378-1.622A8.135,8.135,0,0,1,2081.232,907.06Z" transform="translate(-2074.48 -898.824)"/><path class="j" d="M2075.238,857.428a4.382,4.382,0,1,1-4.887-4.111A4.532,4.532,0,0,1,2075.238,857.428Z" transform="translate(-2066.517 -853.253)"/><path class="z" d="M2082.235,875.749a4.191,4.191,0,0,0-.435-1.387,3.9,3.9,0,0,1,.173.792,3.984,3.984,0,0,1-3.344,4.518,3.784,3.784,0,0,1-3.248-1.287,3.742,3.742,0,0,0,3.579,1.791A3.912,3.912,0,0,0,2082.235,875.749Z" transform="translate(-2074.088 -871.253)"/><path class="aa" d="M2073.06,873.911a2.374,2.374,0,1,1-1.624-3.056A2.449,2.449,0,0,1,2073.06,873.911Z" transform="translate(-2068.119 -868.188)"/><path class="ab" d="M2071.818,880.627a1.42,1.42,0,1,1-.974-1.832A1.475,1.475,0,0,1,2071.818,880.627Z" transform="translate(-2068.663 -875)"/><path class="j" d="M2072.18,878.185a.6.6,0,0,1-.736.451.619.619,0,0,1-.417-.766.6.6,0,1,1,1.153.315Z" transform="translate(-2070.35 -873.836)"/><path class="j" d="M2082.167,895.038a.385.385,0,0,1-.448.286.4.4,0,0,1-.256-.477.366.366,0,1,1,.7.191Z" transform="translate(-2079.27 -888.502)"/></g></g><path class="bi" d="M1912.4,620.265c-1.753,1.233-3.9-2.5-1.2-3.737-3.956-1.249-3.094-6.54-.087-7.506-2.4-.914-1.686-3.58.856-3.683-3.615-1.946-6.132-6.845-2.969-9.507-3.63,2.135-4.881-1.512-4.322-3.857-2.185,2.461-12.956-3.323-11.351-7.363-3.195,5.551-6.525,1.5-7.212-.9-.26,5.036-7.923,3.262-8.918.592-1.087,4.45-4.332,3.872-4.964,1.832-.931,3.327-3.008,3.113-3.409,2.709-1.775,2.921-2.916,7.082-3.93,9.9-.97-.218-3.012-3.426-1.22-6.743a8.606,8.606,0,0,1,1.2-8.493c-2.185-1.642.376-7.853,3.228-7.449-2.77-5.256,1.591-11.152,8.607-8.908-1-3.711,6.558-8.1,7.045-3.411,5.385-7.318,14.437-3.114,15.1,1.125,3.525-7.1,6.389-1.408,5.477.193,4.354-7.339,11.51.584,6.973,3.411,6.076-1.573,12.621,5.7,12.71,10.782,4.609-4.2,6.914,2.238.95,3.016,8.827,2.506,4.738,11.7.021,11.839,5.385,4.1,1.317,12.382-.508,12.841,1.257,1.673.359,3.423-2.085,2.856,2.942,2.965-.215,7.224-2.378,7.152-.292,5.4-5.524,3.433-5.524,3.433S1914.309,618.927,1912.4,620.265Z" transform="translate(-1862.964 -559.76)"/><path class="bh" d="M1865.957,676.644c1.537-.289,3.223-3.531,2.067-6.735.907,2.94,6.5.945,8.054-5.462,1.436,3.853,9.5,6.779,9.856-.456.99,3.451,7.421,9.613,12.006,1.657-2.3,5.8,9.755,11.589,12.889,8.059-.8,3.365,3.956,7.771,9.173,4.692-5.748,7.786-.62,15.244,1.8,15.429-3.64.147-5.1,3.485-1.663,4.8-2.875.911,2.035,6.425,4.011,1.407-1.186,3.751-1.789,5.359-3.153,4.711-.3,4.571-3.094,4.325-3.094,4.325s-1.047-1.023-2.9.13a2.231,2.231,0,0,1,1.443-2.172c-4.492-1.412-3.516-7.422-.107-8.51-2.724-1.034-2.574-4.265.3-4.383-4.565-3.945-4.748-8.406-1.892-11.137-4.115,2.429-6.347-1.151-5.712-3.81-2.468,2.8-14.685-3.774-12.869-8.348-3.617,6.286-7.393,1.7-8.183-1.022-.281,5.712-8.975,3.7-10.1.666-1.234,5.056-4.912,4.413-5.635,2.089-1.054,3.766-2.253,4.431-2.713,3.976.053,1.757-.754,4.47-2.336,9.669-1.135.041-2.2-4.867-.242-4.934C1866.218,680.548,1865.553,679.513,1865.957,676.644Z" transform="translate(-1865.416 -648.787)"/><path class="bh" d="M2184.273,646.9c2.6-3.782.022-9.1-5.918-5.212C2184.681,640.736,2184.273,646.9,2184.273,646.9Z" transform="translate(-2132.348 -628.575)"/><path class="bh" d="M1914.016,607.616c-1.244-5.843-6.156-4.486-5.526,2.6C1910.625,604.157,1914.016,607.616,1914.016,607.616Z" transform="translate(-1901.802 -597.508)"/><path class="bh" d="M2272.9,767.957c7.744.025,5.624-6.954-.541-4.714C2278.241,765.754,2272.9,767.957,2272.9,767.957Z" transform="translate(-2212.637 -733.182)"/><path class="bh" d="M2016.765,580.776c.744-7.745-6.373-6.25-4.719.122C2015.076,575.232,2016.765,580.776,2016.765,580.776Z" transform="translate(-1990.086 -573.226)"/><g transform="translate(44.264 52.549)"><path class="g" d="M2169.7,921.634a4.7,4.7,0,0,1,5.5-1.18c3.458,1.593,1.885,6.836-1.687,8.668s-7.445.065-7.082-2.91Z" transform="translate(-2166.407 -919.998)"/><path class="k" d="M2195.77,931.8c-1.811-1.726-6.194,1.512-4.771,5.492.7-3.756,2.458-4.136,3.042-1.763.6-1,.479-1.935-.847-2.616A3.175,3.175,0,0,1,2195.77,931.8Z" transform="translate(-2187.173 -929.671)"/></g></g><g transform="translate(1.046)"><path class="be" d="M1870.136,560.675c13.411-18.043,54.051,3.282,62.626,23.655,10.188-13.348,4.335-37.733-16.357-46.241C1896.559,529.935,1871.207,541.586,1870.136,560.675Zm18.061-15.263c1.483-.471,10.537-.249,17.21,3.361,2.654,1.442-.1,5.434-2.51,5.456-6.2-2.233-13.99-3.885-18.415-3.417C1882.261,548.62,1886.714,545.883,1888.2,545.411Z" transform="translate(-1870.136 -535.451)"/><path class="bf" d="M1928.63,571.569c8.78,6.422,6.177-18.75-14.519-27.252-.211-.094-.424-.169-.646-.248a34.859,34.859,0,0,1,5.147,1.639c20.694,8.505,26.062,30.347,17.51,43.479-8.57-20.385-48.818-39.1-61.5-22.705a3.75,3.75,0,0,1,.015-1.232C1887.9,550.945,1912.451,559.73,1928.63,571.569Z" transform="translate(-1873.926 -542.812)"/><path class="be" d="M1934.044,626.93c3.346-.487,15.083.235,23.415,5.234,1.488.762.6,5.776-3.334,4.921-4.5-1.452-10.766-5.554-24.005-4.278Z" transform="translate(-1921.369 -613.476)"/><path class="bj" d="M1954.048,636.513a3.193,3.193,0,0,0,3.2-2.269c.459-1.3.234-2.62-.521-2.991-8.292-4.977-20.011-5.762-23.491-5.253a.147.147,0,0,0-.115.152.124.124,0,0,0,.147.111c3.46-.5,15.086.27,23.332,5.217.616.318.8,1.541.4,2.678a2.968,2.968,0,0,1-3.64,2c-.838-.273-1.736-.64-2.775-1.052a40.2,40.2,0,0,0-21.269-3.242.136.136,0,0,0,.021.272,40.029,40.029,0,0,1,21.152,3.212c1.037.422,1.941.793,2.809,1.072A4.2,4.2,0,0,0,1954.048,636.513Z" transform="translate(-1920.58 -612.677)"/><path class="bk" d="M1956.777,543.847c5.027.4,7.074,6.781.608,6.115-8.119-.821-16.741-1.846-25.3,2.723A31.446,31.446,0,0,1,1956.777,543.847Z" transform="translate(-1923.046 -542.531)"/></g></g></g><g transform="translate(137.47 77.952)"><path class="bl" d="M1209.022,1220.09a.8.8,0,0,1-.8.8h-42.193a.8.8,0,0,1-.8-.8h0a.8.8,0,0,1,.8-.8h42.193a.8.8,0,0,1,.8.8Z" transform="translate(-1165.237 -1196.578)"/><path class="at" d="M1247.545,1063.565h-34.414c-2.1,0-1.762,1.534-1.762,1.534l-1.049,21.911h36.828l2.16-21.911S1249.465,1063.565,1247.545,1063.565Z" transform="translate(-1203.744 -1063.565)"/><path class="bm" d="M1314.8,1123.994a4.32,4.32,0,1,1-4.32-4.32A4.32,4.32,0,0,1,1314.8,1123.994Z" transform="translate(-1285.602 -1111.489)"/><g transform="translate(6.576)"><path class="bn" d="M1370.382,1065.35c-.145-.048-5,17.734-6.56,22.991h1.775l7.57-23.218S1370.553,1065.407,1370.382,1065.35Z" transform="translate(-1341.43 -1064.896)"/><path class="bn" d="M1221.651,1063.565l-2.444.057-8.414,13.511-.473,9.878h2.849c2.911-5.089,11.766-21.929,12.624-23.446Z" transform="translate(-1210.32 -1063.565)"/></g><path class="bo" d="M1219.056,1064.134h35.039a1.874,1.874,0,0,1,1.393.466c-.127-.448-.519-1.035-1.706-1.035h-34.414c-1.259,0-1.641.55-1.746.992A2.052,2.052,0,0,1,1219.056,1064.134Z" transform="translate(-1209.98 -1063.565)"/><path class="bp" d="M1225.059,1066.647s14.07.114,35.5,0C1236.344,1066.334,1225.059,1066.647,1225.059,1066.647Z" transform="translate(-1216.333 -1066.078)"/></g><g transform="translate(4.676 14.613)"><path class="k" d="M664.507,1008.424c-2.717,1.093-4.747,10.369-15.242,13.212.562,2.436,1.311,2.467,1.311,2.467a21.922,21.922,0,0,0,10.62-6.84c2.855-3.462,5.84-7.277,5.84-7.277Z" transform="translate(-591.737 -953.129)"/><g transform="translate(36.569 93.929)"><g transform="translate(14.129 12.89)"><path class="h" d="M605.3,1535.68a2.422,2.422,0,0,0-.036,1.784,8.536,8.536,0,0,0,6.06,3.8c2.032.129,4.065-.725,4.478-1.793a1.85,1.85,0,0,0-.186-1.745C612.716,1536.067,605.3,1535.68,605.3,1535.68Z" transform="translate(-604.724 -1510.292)"/><path class="g" d="M602.443,1361.716s.721,22.979.818,25.913c1.217,1.754,2.919-.355,2.919-.355s-.418-23.461-.66-25.558A15.244,15.244,0,0,0,602.443,1361.716Z" transform="translate(-602.443 -1361.635)"/><path class="k" d="M610.049,1498.074l.1,1.508a1.422,1.422,0,0,0-1.352-.9,1.6,1.6,0,0,0-1.375.968l-.043-1.658Z" transform="translate(-606.655 -1478.101)"/><path class="bq" d="M605.606,1511.066s1.091,1.794,1.73,1.448c-.451-.678-.339-2.173.643-2.346s.979,1.536.979,1.536a4.191,4.191,0,0,1,3.726-.38,4.539,4.539,0,0,1,2.974,4.6c-.494.765-2.637,1.745-5.31,1.364a8.594,8.594,0,0,1-4.741-2.861,1.58,1.58,0,0,1-.336-1.66C605.53,1512.174,604.969,1511.066,605.606,1511.066Z" transform="translate(-604.764 -1488.491)"/><path class="br" d="M641.795,1521.183c.941-.3,3.2,1.707,2.184,2.857s-4.141.506-4.141.506,2.635-.207,2.333-1.568C642.06,1522.463,640.993,1521.438,641.795,1521.183Z" transform="translate(-634.383 -1497.884)"/><path class="j" d="M631.437,1519.489a.186.186,0,0,0,.159-.091c.808-1.212,1.662-.548,1.7-.517a.181.181,0,0,0,.275-.052.251.251,0,0,0-.044-.323c-.011-.007-1.21-.942-2.248.618a.248.248,0,0,0,.038.32A.185.185,0,0,0,631.437,1519.489Z" transform="translate(-627.033 -1495.38)"/><path class="j" d="M644.716,1522.473a.2.2,0,0,0,.163-.09c.811-1.215,1.661-.547,1.7-.514a.188.188,0,0,0,.278-.06.252.252,0,0,0-.044-.317c-.013-.007-1.214-.942-2.25.618a.243.243,0,0,0,.036.318A.185.185,0,0,0,644.716,1522.473Z" transform="translate(-638.38 -1497.931)"/></g><g transform="translate(2.824 12.89)"><path class="h" d="M527.8,1535.68a2.422,2.422,0,0,0-.036,1.784,8.536,8.536,0,0,0,6.06,3.8c2.032.129,4.065-.725,4.478-1.793a1.85,1.85,0,0,0-.186-1.745C535.216,1536.067,527.8,1535.68,527.8,1535.68Z" transform="translate(-527.224 -1510.292)"/><path class="g" d="M524.943,1361.716s.721,22.979.818,25.913c1.217,1.754,2.919-.355,2.919-.355s-.418-23.461-.66-25.558A15.244,15.244,0,0,0,524.943,1361.716Z" transform="translate(-524.943 -1361.635)"/><path class="k" d="M532.549,1498.074l.1,1.508a1.422,1.422,0,0,0-1.352-.9,1.6,1.6,0,0,0-1.375.968l-.043-1.658Z" transform="translate(-529.155 -1478.101)"/><path class="bq" d="M528.106,1511.066s1.091,1.794,1.73,1.448c-.451-.678-.339-2.173.643-2.346s.979,1.536.979,1.536a4.191,4.191,0,0,1,3.726-.38,4.539,4.539,0,0,1,2.974,4.6c-.494.765-2.637,1.745-5.31,1.364a8.594,8.594,0,0,1-4.741-2.861,1.58,1.58,0,0,1-.336-1.66C528.03,1512.174,527.469,1511.066,528.106,1511.066Z" transform="translate(-527.264 -1488.491)"/><path class="br" d="M564.295,1521.183c.941-.3,3.2,1.707,2.184,2.857s-4.141.506-4.141.506,2.635-.207,2.333-1.568C564.56,1522.463,563.493,1521.438,564.295,1521.183Z" transform="translate(-556.883 -1497.884)"/><path class="j" d="M553.937,1519.489a.186.186,0,0,0,.159-.091c.808-1.212,1.662-.548,1.7-.517a.181.181,0,0,0,.275-.052.25.25,0,0,0-.044-.323c-.011-.007-1.21-.942-2.249.618a.248.248,0,0,0,.038.32A.185.185,0,0,0,553.937,1519.489Z" transform="translate(-549.533 -1495.38)"/><path class="j" d="M567.216,1522.473a.2.2,0,0,0,.163-.09c.811-1.215,1.661-.547,1.7-.514a.188.188,0,0,0,.278-.06.252.252,0,0,0-.044-.317c-.013-.007-1.214-.942-2.25.618a.243.243,0,0,0,.036.318A.185.185,0,0,0,567.216,1522.473Z" transform="translate(-560.88 -1497.931)"/></g><path class="bs" d="M505.581,1274.405s1.465,17.84,2.449,30.756a7.56,7.56,0,0,0,6.134.2l2.154-19.9s1.9,16.565,2.289,19.691c1.948,1.018,5.168,1.255,6.292-.612.452-9.84,1.784-31.28,1.784-31.28Z" transform="translate(-505.581 -1273.268)"/><path class="bt" d="M599.568,1484.211s-2.44,1.521-6.814.87c.111,1.117.154,1.838.154,1.838s2.261,1.134,6.659-.717A17.546,17.546,0,0,0,599.568,1484.211Z" transform="translate(-580.038 -1453.44)"/><path class="bt" d="M520.245,1488.664a14.887,14.887,0,0,0,6.8.045c-.077,1.12-.1,1.842-.1,1.842s-1.7,1.293-6.585.094C520.269,1489.573,520.245,1488.664,520.245,1488.664Z" transform="translate(-518.106 -1457.244)"/><path class="bt" d="M512.428,1301.355l.532,6.923s8.862-5.775,18.173-.8c.4-4.66.533-7.589.533-7.589Z" transform="translate(-511.429 -1296.007)"/></g><g transform="translate(38.977 65.326)"><path class="g" d="M522.09,1083.587a40.731,40.731,0,0,1,3.52-2.087,15.539,15.539,0,0,0-.808-3.456l2.964-.856s.725,2.652.883,3.737c2.3.166,5.341.186,5.341.186s2.152,9.916-5.563,11C526.395,1092.4,522.312,1086.778,522.09,1083.587Z" transform="translate(-522.09 -1077.188)"/><path class="k" d="M544.779,1082.768l-2.5.848a11.539,11.539,0,0,1,.809,2.594c.611-.711,1.868-1.324,2.682-.534A23.358,23.358,0,0,0,544.779,1082.768Z" transform="translate(-539.331 -1081.954)"/></g><g transform="translate(34.598 67.633)"><path class="bu" d="M497.84,1103.305c-1.8.62-3.649,2.443-3.932,3.814-.2,1.975.518,6.469.748,5.733.8,6.764-.015,15.015-2.588,20.086,5.357,5.184,21.727,2.18,26.084-1.781-1.312-2.224-2.544-14.073-5.061-22.27-.055-.165,2.97-5.1,2.163-5.595-2.857-1.857-5.831-2.051-10.179-1.615C506.974,1105.89,499.57,1106.845,497.84,1103.305Z" transform="translate(-492.068 -1100.245)"/><path class="bv" d="M620.067,1101.643c-.582-1.539-.7-5.636-2.753-7.356,1.537.244,3.724-.787,5.1-1.286a8.839,8.839,0,0,1,1.811,4.842C623.317,1099.59,620.067,1101.643,620.067,1101.643Z" transform="translate(-599.044 -1093)"/><path class="j" d="M532.059,1101.677c.429,1.072.714,3.071-2,3.5a4.435,4.435,0,0,1-4.5-2.107,14.98,14.98,0,0,0-1.5.714s1.357,3.535,6.428,2.607,3.25-4.821,3.25-4.821Z" transform="translate(-519.393 -1100.32)"/><path class="bw" d="M504.925,1250.583s-.759,4.743-2.578,7.158c3.047,2.286,16,3.238,22.665-1.143-1.524-6.952-1.685-8.1-1.685-8.1s-2.6,9.816-9.743,9.054A9.832,9.832,0,0,1,504.925,1250.583Z" transform="translate(-500.848 -1225.814)"/></g><path class="bx" d="M331.629,997.506c2.393,1.988,7.255,6.141,4.967,10.9,1.712,2.027-.106,8.765-4.882,5.464-4.463,5.974-11.025.425-7.709-3.337-4.7.036-6.586-7.327,1.007-7.276-6.779-1.92-2.183-8.733,2.708-6.861C332.292,998.147,331.629,997.506,331.629,997.506Z" transform="translate(-310.412 -942.579)"/><path class="bu" d="M348.814,986.632c.5,3.728,1.979,11.095,6.433,10.777s6.05,1.092,6.05,1.092l1.34-2.22a19.579,19.579,0,0,1-6.52-5.877c-2.558-3.837-3.986-5.927-3.986-5.927A4.228,4.228,0,0,0,348.814,986.632Z" transform="translate(-335.113 -932.675)"/><g transform="translate(11.529 11.076)"><path class="g" d="M389.171,722.575c3.215,7.553,5.669,30.888-15.507,38.062-21.053,7.129-34.033-6.789-38.5-21.465-5.391-17.708,7.843-30.079,20.34-32.874C375.006,701.935,384.872,712.463,389.171,722.575Z" transform="translate(-333.928 -705.285)"/><path class="q" d="M650.831,917.168c.216,2.05,3.334,3.359,6.363,2.333a5.553,5.553,0,0,0,4.045-6.078c-.37-2.211-3.331-3.777-6.18-1.258C652.388,914.522,650.607,915.052,650.831,917.168Z" transform="translate(-604.588 -880.883)"/><path class="r" d="M704.55,923.253a.571.571,0,0,0,.692.4c.346-.05.595-.3.558-.572a.562.562,0,0,0-.692-.39C704.762,922.734,704.513,922.992,704.55,923.253Z" transform="translate(-650.484 -890.97)"/><path class="s" d="M582.35,903.985c.038.271.4.433.806.38s.7-.315.666-.583-.4-.438-.8-.381S582.312,903.72,582.35,903.985Z" transform="translate(-546.11 -874.492)"/><path class="q" d="M435.569,970.574c.484,2.77,3.4,4.362,7.051,4.076,3.532-.281,6.743-3.371,5.781-5.883-.915-2.392-2.716-1.277-6.961-2.234C437.34,965.6,435.076,967.8,435.569,970.574Z" transform="translate(-420.686 -928.24)"/><path class="r" d="M451.578,980.115a.553.553,0,0,0,.678.354.48.48,0,1,0-.163-.914A.555.555,0,0,0,451.578,980.115Z" transform="translate(-434.413 -939.536)"/><path class="by" d="M551.4,935.174a.711.711,0,0,0,.872.455c.418-.075.714-.4.656-.724a.707.707,0,0,0-.864-.453A.715.715,0,0,0,551.4,935.174Z" transform="translate(-519.673 -901.011)"/><path class="by" d="M526.047,939.032a.712.712,0,0,0,.873.455.617.617,0,1,0-.207-1.176A.716.716,0,0,0,526.047,939.032Z" transform="translate(-498.018 -904.307)"/><path class="by" d="M540.253,951.2a.712.712,0,0,0,.872.456.617.617,0,1,0-.208-1.177A.715.715,0,0,0,540.253,951.2Z" transform="translate(-510.152 -914.698)"/><path class="by" d="M630.46,912.884a.712.712,0,0,0,.872.456c.419-.075.715-.4.657-.724a.707.707,0,0,0-.865-.452A.714.714,0,0,0,630.46,912.884Z" transform="translate(-587.2 -881.973)"/><path class="by" d="M610.37,915.827a.8.8,0,1,0,.664-.721A.712.712,0,0,0,610.37,915.827Z" transform="translate(-570.04 -884.486)"/><path class="by" d="M624.563,928a.714.714,0,0,0,.873.455.617.617,0,1,0-.208-1.176A.717.717,0,0,0,624.563,928Z" transform="translate(-582.164 -894.88)"/><path class="bz" d="M642.785,803.987c-3.256-.969-3.987,2.62-1.819,2.655,2.328.034,4.261.91,4.558.688C646.168,806.845,644.614,804.528,642.785,803.987Z" transform="translate(-595.121 -789.448)"/><path class="bz" d="M458.542,852.04c2.771-1.96,4.615,1.2,2.575,1.934-2.189.777-3.748,2.229-4.093,2.114C456.254,855.839,456.982,853.144,458.542,852.04Z" transform="translate(-438.804 -830.093)"/><path class="l" d="M573.9,902.811a.184.184,0,0,0,.115-.005,2.388,2.388,0,0,0,1.447-2.594,2.3,2.3,0,0,0-1.8-1.937c-.524-.066-1.529.1-2.3,1.887a.159.159,0,0,0,.082.208.154.154,0,0,0,.208-.081c.519-1.19,1.212-1.789,1.973-1.7a1.958,1.958,0,0,1,1.521,1.675,2.041,2.041,0,0,1-1.277,2.252.164.164,0,0,0-.068.217A.144.144,0,0,0,573.9,902.811Z" transform="translate(-536.723 -870.113)"/><path class="ca" d="M477.927,894.688a.238.238,0,0,0,.1.015.335.335,0,0,0,.329-.337c-.029-2.971,2.053-5.007,4.013-5.049,1.528-.033,2.479,1.161,2.548,3.2a.334.334,0,0,0,.668-.024c-.1-2.879-1.732-3.869-3.229-3.837-2.278.047-4.7,2.36-4.666,5.72A.33.33,0,0,0,477.927,894.688Z" transform="translate(-456.717 -861.903)"/><path class="ca" d="M635.457,862.06a.262.262,0,0,0,.1.015.329.329,0,0,0,.33-.336c-.023-2.812,1.944-4.739,3.793-4.78,1.445-.029,2.34,1.1,2.4,3.018a.333.333,0,1,0,.665-.022c-.091-2.744-1.652-3.689-3.081-3.658-2.17.045-4.475,2.245-4.446,5.449A.327.327,0,0,0,635.457,862.06Z" transform="translate(-591.268 -834.267)"/></g><path class="bx" d="M295.246,629.41c-19.859-.934-27.467,10.188-27.467,10.188s-8.295,3.133-11.852,14.137c-4.126,12.774,4.989,21.18,11.047,28.806,15.326-6.6,11.746-29.679,11.746-29.679,6.224,11.555,24.685,3.112,28.292-.647,7.161-7.466,14.859,3.276,15.981,10.464C325.88,651.819,316.019,630.387,295.246,629.41Z" transform="translate(-254.89 -629.354)"/><path class="cb" d="M281.33,725.48c-1.79-1.547-12.53,6.8-11.115,16.371,2.63-6.86,5.907-8.971,5.907-8.971s-4.387,4.433-4.223,15.1c5.155-11.169,10.568-13.9,10.568-13.9a138.848,138.848,0,0,1-7.5,12.17c8.72-5.8,12.487-15.619,10.922-18.109-1.642-2.041-8.552,6.379-8.552,6.379S282.878,726.817,281.33,725.48Z" transform="translate(-267.87 -711.299)"/><path class="cb" d="M383.906,649.733c4.924-5.974,14.067-12.615,31.908-6.524-9.212-1.572-15.5,1.012-15.5,1.012s20.639.23,27.93,11.207c-6.6-6.3-21.219-10.235-33.689-5.925,7.656,2.3,18.783,2.95,18.783,2.95s-16.992,3.995-23.6-.817a23.871,23.871,0,0,0,12.052,7.038s-12.76-.7-16.942-7.611c3.524-2.819,8.02-4.9,15.553-5.174C393.9,642.749,383.906,649.733,383.906,649.733Z" transform="translate(-365.086 -639.124)"/><path class="bz" d="M323.059,764.521c-.029.59,4.6,21.208-11.638,30.645-3.989-4.864-1.669-7.82,2.035-9.617C324.444,780.2,323.059,764.521,323.059,764.521Z" transform="translate(-301.393 -744.804)"/><path class="bz" d="M412.389,742.461c5.295,6.206,15.167,7.079,22.926,1.065s11.895-3.888,13.824-1.371c-3.307-1.888-6.019-2.45-10.666,1.274C427.989,751.841,415.81,752.426,412.389,742.461Z" transform="translate(-389.414 -723.546)"/><g transform="translate(9.178 46.496)"><path class="g" d="M326.048,950.242a5.1,5.1,0,0,0-5.808-1.834c-3.9,1.351-2.745,7.145.922,9.479s8.029.841,7.943-2.4Z" transform="translate(-317.81 -948.102)"/><path class="ad" d="M334.714,960.349c2.132-1.663,6.525,2.265,4.582,6.385-.386-4.114-2.226-4.681-3.1-2.2-.551-1.134-.318-2.13,1.177-2.716A3.413,3.413,0,0,0,334.714,960.349Z" transform="translate(-332.248 -958.228)"/></g><path class="bs" d="M336.059,810.191a.723.723,0,0,0,.646.549h.019a.969.969,0,0,0,.2-.022l10.143-2.481a11.048,11.048,0,0,0,9.574,7.513l.184.011a11.023,11.023,0,0,0,11.5-13.2l5.125-1.663a11.03,11.03,0,0,0,9.8,8.313l.166.014h.016a11.067,11.067,0,0,0,11.688-10.1,11.022,11.022,0,0,0-10.095-11.871l-.182-.012a11.007,11.007,0,0,0-11.648,12.234l-5.245,1.7a11.017,11.017,0,0,0-9.526-7.381l-.165-.014h-.019a11.026,11.026,0,0,0-11.526,13.074l-10.121,2.476A.718.718,0,0,0,336.059,810.191ZM347.978,804a9.619,9.619,0,0,1,10.16-8.788l.162.012a9.572,9.572,0,0,1,8.777,10.323,9.623,9.623,0,0,1-10.163,8.787l-.161-.011A9.581,9.581,0,0,1,347.978,804Zm45.7-4.993a9.622,9.622,0,0,1-10.165,8.785H383.5l-.15-.007a9.581,9.581,0,0,1,1.385-19.112l.17.013A9.581,9.581,0,0,1,393.682,799ZM383.438,809h0Z" transform="translate(-324.201 -764.187)"/><g transform="translate(48.377 49.695)"><path class="g" d="M587.985,971.584c1.784-.543,3.751,2.346.714,3.457,3.021,1.18.208,4.419-2.169,2.892Z" transform="translate(-586.53 -971.301)"/><path class="l" d="M588.135,977.236a2.29,2.29,0,0,0,1.869-.221,1.933,1.933,0,0,0,.992-1.762,2.111,2.111,0,0,1,.1-3.773,2.074,2.074,0,0,0-2.477-1.368.214.214,0,1,0,.125.41,1.659,1.659,0,0,1,1.946,1.094c.272.812-.239,1.544-1.367,1.957a.215.215,0,0,0,0,.4c.762.3,1.208.765,1.254,1.316a1.506,1.506,0,0,1-.786,1.359,1.943,1.943,0,0,1-2.112-.1.214.214,0,1,0-.231.36A2.757,2.757,0,0,0,588.135,977.236Z" transform="translate(-587.223 -970.033)"/></g><path class="g" d="M731.537,995.58c-.876.228-2.5.64-1.961,1.364a2.169,2.169,0,0,0,2.543.012c-.771,1.048-.724,1.783-.333,2,.735.4,1.583-.8,1.583-.8s.964,1.983,1.985,2.261-.062-1.811-.062-1.811,1.4,1.525,2.124,1.343-1.031-2-1.031-2a7.239,7.239,0,0,0-1.639-1.826A3.206,3.206,0,0,0,731.537,995.58Z" transform="translate(-660.242 -941.983)"/></g><g transform="translate(68.393 55.057)"><path class="cc" d="M802.141,1184.876a1.04,1.04,0,0,1-1.043-1.041v-5.578a1.043,1.043,0,0,1,2.085,0v5.578A1.042,1.042,0,0,1,802.141,1184.876Z" transform="translate(-785.139 -1137.742)"/><path class="cd" d="M802.407,1190.064a.847.847,0,0,0,.806-.884v-4.23a.214.214,0,0,0,0-.03.873.873,0,0,1,.59.85V1190a.808.808,0,1,1-1.61.031A.786.786,0,0,0,802.407,1190.064Z" transform="translate(-786.071 -1144.323)"/><path class="cd" d="M742.4,957.987a20.376,20.376,0,0,1-10.955-3.177.625.625,0,1,1,.671-1.055,19.2,19.2,0,1,0,19.278-33.166.627.627,0,0,1,.586-1.108,20.445,20.445,0,0,1-9.58,38.506Z" transform="translate(-725.398 -917.543)"/><path class="ce" d="M722.479,946.088a1.032,1.032,0,0,1-.524-.141,1.045,1.045,0,0,1-.377-1.427L743.3,907.135a1.042,1.042,0,1,1,1.8,1.047L723.38,945.57A1.043,1.043,0,0,1,722.479,946.088Z" transform="translate(-717.098 -906.616)"/><path class="cf" d="M725.694,944.192a17,17,0,1,1-17-17A17,17,0,0,1,725.694,944.192Z" transform="translate(-691.692 -924.187)"/><path class="cg" d="M721.236,983.635a15.584,15.584,0,0,0,14.046-22.319A15.578,15.578,0,1,1,711.352,980.1,15.508,15.508,0,0,0,721.236,983.635Z" transform="translate(-708.484 -953.337)"/><path class="j" d="M731.251,933.273c.278,2.712,3.525,4.856,5.7,4.451s3.268,1.947,3.824,2.713-3.544,2.571-2.711,4.033-4.728,4.937-8.622,6.953-2.711,4.866-4.1,4.729-2.78-6.538-2.287-7.579.966-1.878-.606-2.572.6-3.757,0-4.243-1.835.346-1.349-1.043.9-2.018-1.042-2.575-1.183-3.407,1.32-5.563,4.085-2.352,5.772-2.224C728.2,930.432,730.974,930.561,731.251,933.273Zm1.941-5.759a2.626,2.626,0,0,0-1.941,3.186c.487,1.531,2.92,4.313,6.05,4.1s1.936,1.353,1.877,2.434.974,2.433,3.129,2.919-1.842,2.781-1.478,3.753,4.259,2.645,4.954,3.827-2.225,4.153-2.086,5a17.85,17.85,0,0,0,.834,3.2,17,17,0,0,0-11.34-28.422Zm-4.486,30.791c-1.294.9,5.4,1.808,6.579.557s-.766-3.406-1.253-4.519,1.39-2.087,0-1.61a4.409,4.409,0,0,0-2.893,3.694C731.1,958.027,730,957.4,728.707,958.305Z" transform="translate(-714.981 -924.466)"/><g transform="translate(9.023 7.979)"><path class="ch" d="M875.776,973.962a15.613,15.613,0,0,0-.37-12.646,15.567,15.567,0,0,1,2.245,21.807c-.142-.586-.271-1.181-.326-1.517-.139-.845,2.781-3.814,2.086-5C878.95,975.826,877.088,974.827,875.776,973.962Z" transform="translate(-857.631 -961.316)"/><path class="ch" d="M784.82,1109.926c1.293-.9,2.391-.279,2.433-1.878a3.811,3.811,0,0,1,.927-2.279,15.08,15.08,0,0,0,2.017-.74,1.1,1.1,0,0,0-.051.935c.487,1.113,2.433,3.268,1.253,4.519S783.526,1110.83,784.82,1109.926Z" transform="translate(-780.117 -1084.065)"/><path class="ch" d="M755.957,1111.607c-.328.888-.4,1.511-1.071,1.444-.469-.049-.939-.811-1.337-1.842A15.538,15.538,0,0,0,755.957,1111.607Z" transform="translate(-753.549 -1089.344)"/></g><path class="ci" d="M766.213,1219.152a.953.953,0,0,0,1.035.839h10.183a.953.953,0,0,0,1.035-.839h0a.953.953,0,0,0-1.035-.839H767.248a.953.953,0,0,0-1.035.839Z" transform="translate(-755.343 -1172.845)"/></g><path class="g" d="M528.317,1107.615c12.255.927,17.09-6.269,19.52-7.966,1.654-1.155,4.417-1.943,4.623-.97.328.8-2.1,1.18-2.976,1.767,2.751-.528,3.775-.9,3.935-.012s-3.191,1.529-3.191,1.529,3.367-.214,2.981.866-2.981.389-2.981.389,2.118.823,1.42,1.53-3.212-.8-3.212-.8-9.437,8.222-20.684,6.892C520.924,1110.032,521.516,1107.1,528.317,1107.615Z" transform="translate(-479.141 -1015.23)"/><path class="bv" d="M501.214,1134.045c1.129.645,4.354,3.709,7.659,3.386.04,1.008.363,4.555-.967,6.167-3.225.564-7.091-1.866-7.619-4.273A6.372,6.372,0,0,1,501.214,1134.045Z" transform="translate(-459.657 -1045.812)"/></g><g transform="translate(344.373 64.485)"><g transform="translate(0 0)"><path class="cj" d="M1167.038,253.5a8.811,8.811,0,1,0,8.812-8.812A8.811,8.811,0,0,0,1167.038,253.5Z" transform="translate(-1150.845 -218.401)"/><rect class="ck" width="1.189" height="9.36" transform="translate(24.41)"/><path class="cl" d="M1194.971,124.017a3.445,3.445,0,0,0,3.444,3.445H1201a3.445,3.445,0,0,0,3.445-3.445v-4.4a3.445,3.445,0,0,0-3.445-3.445h-2.584a3.445,3.445,0,0,0-3.444,3.445Z" transform="translate(-1174.703 -108.63)"/><path class="cm" d="M1240.156,131.353c-.121-1.659-1.471-2.686-1.727.128s.383,3.795,1.087,3.539S1240.412,134.87,1240.156,131.353Z" transform="translate(-1211.773 -120.207)"/><path class="ak" d="M1089.813,171.425l19.322,17.876h-48.372l19.584-17.876Z" transform="translate(-1060.072 -155.825)"/><path class="cl" d="M1090.665,171.425h.318c-1.988,2.6-4.462,6.591-3.244,9.118,3.078,6.388,19.9,6.752,28.745,6.484l2.458,2.274h-46.7Z" transform="translate(-1069.879 -155.826)"/><path class="cn" d="M1056.027,287.66a.831.831,0,0,0,.831.831h48.211a.831.831,0,0,0,.831-.831h0a.831.831,0,0,0-.831-.831h-48.211a.831.831,0,0,0-.831.831Z" transform="translate(-1056.027 -254.395)"/></g></g></g></svg>